<svg viewBox="0 0 930.75 400" xmlns="http://www.w3.org/2000/svg"><g><g><g><g><g><line x1="30" y1="377" x2="25" y2="377" style="visibility: inherit;" fill="rgb(0, 0, 0)" stroke="rgb(204, 204, 204)" stroke-width="1px"></line><line x1="30" y1="342.7272727272727" x2="25" y2="342.7272727272727" style="visibility: inherit;" fill="rgb(0, 0, 0)" stroke="rgb(204, 204, 204)" stroke-width="1px"></line><line x1="30" y1="308.45454545454544" x2="25" y2="308.45454545454544" style="visibility: inherit;" fill="rgb(0, 0, 0)" stroke="rgb(204, 204, 204)" stroke-width="1px"></line><line x1="30" y1="274.1818181818182" x2="25" y2="274.1818181818182" style="visibility: inherit;" fill="rgb(0, 0, 0)" stroke="rgb(204, 204, 204)" stroke-width="1px"></line><line x1="30" y1="239.9090909090909" x2="25" y2="239.9090909090909" style="visibility: inherit;" fill="rgb(0, 0, 0)" stroke="rgb(204, 204, 204)" stroke-width="1px"></line><line x1="30" y1="205.63636363636363" x2="25" y2="205.63636363636363" style="visibility: inherit;" fill="rgb(0, 0, 0)" stroke="rgb(204, 204, 204)" stroke-width="1px"></line><line x1="30" y1="171.36363636363637" x2="25" y2="171.36363636363637" style="visibility: inherit;" fill="rgb(0, 0, 0)" stroke="rgb(204, 204, 204)" stroke-width="1px"></line><line x1="30" y1="137.0909090909091" x2="25" y2="137.0909090909091" style="visibility: inherit;" fill="rgb(0, 0, 0)" stroke="rgb(204, 204, 204)" stroke-width="1px"></line><line x1="30" y1="102.81818181818181" x2="25" y2="102.81818181818181" style="visibility: inherit;" fill="rgb(0, 0, 0)" stroke="rgb(204, 204, 204)" stroke-width="1px"></line><line x1="30" y1="68.54545454545453" x2="25" y2="68.54545454545453" style="visibility: inherit;" fill="rgb(0, 0, 0)" stroke="rgb(204, 204, 204)" stroke-width="1px"></line><line x1="30" y1="34.27272727272729" x2="25" y2="34.27272727272729" style="visibility: inherit;" fill="rgb(0, 0, 0)" stroke="rgb(204, 204, 204)" stroke-width="1px"></line><line x1="30" y1="0" x2="25" y2="0" style="visibility: inherit;" fill="rgb(0, 0, 0)" stroke="rgb(204, 204, 204)" stroke-width="1px"></line></g><g transform="translate(20, 0)"><text x="0" y="377" dx="0em" dy="0.3em" style="text-anchor: end; visibility: hidden; font-family: Roboto, sans-serif; font-size: 12px; font-weight: 200;" fill="rgb(33, 33, 33)" stroke="none" stroke-width="1px">3</text><text x="0" y="342.7272727272727" dx="0em" dy="0.3em" style="text-anchor: end; visibility: inherit; font-family: Roboto, sans-serif; font-size: 12px; font-weight: 200;" fill="rgb(33, 33, 33)" stroke="none" stroke-width="1px">4</text><text x="0" y="308.45454545454544" dx="0em" dy="0.3em" style="text-anchor: end; visibility: inherit; font-family: Roboto, sans-serif; font-size: 12px; font-weight: 200;" fill="rgb(33, 33, 33)" stroke="none" stroke-width="1px">5</text><text x="0" y="274.1818181818182" dx="0em" dy="0.3em" style="text-anchor: end; visibility: inherit; font-family: Roboto, sans-serif; font-size: 12px; font-weight: 200;" fill="rgb(33, 33, 33)" stroke="none" stroke-width="1px">6</text><text x="0" y="239.9090909090909" dx="0em" dy="0.3em" style="text-anchor: end; visibility: inherit; font-family: Roboto, sans-serif; font-size: 12px; font-weight: 200;" fill="rgb(33, 33, 33)" stroke="none" stroke-width="1px">7</text><text x="0" y="205.63636363636363" dx="0em" dy="0.3em" style="text-anchor: end; visibility: inherit; font-family: Roboto, sans-serif; font-size: 12px; font-weight: 200;" fill="rgb(33, 33, 33)" stroke="none" stroke-width="1px">8</text><text x="0" y="171.36363636363637" dx="0em" dy="0.3em" style="text-anchor: end; visibility: inherit; font-family: Roboto, sans-serif; font-size: 12px; font-weight: 200;" fill="rgb(33, 33, 33)" stroke="none" stroke-width="1px">9</text><text x="0" y="137.0909090909091" dx="0em" dy="0.3em" style="text-anchor: end; visibility: inherit; font-family: Roboto, sans-serif; font-size: 12px; font-weight: 200;" fill="rgb(33, 33, 33)" stroke="none" stroke-width="1px">10</text><text x="0" y="102.81818181818181" dx="0em" dy="0.3em" style="text-anchor: end; visibility: inherit; font-family: Roboto, sans-serif; font-size: 12px; font-weight: 200;" fill="rgb(33, 33, 33)" stroke="none" stroke-width="1px">11</text><text x="0" y="68.54545454545453" dx="0em" dy="0.3em" style="text-anchor: end; visibility: inherit; font-family: Roboto, sans-serif; font-size: 12px; font-weight: 200;" fill="rgb(33, 33, 33)" stroke="none" stroke-width="1px">12</text><text x="0" y="34.27272727272729" dx="0em" dy="0.3em" style="text-anchor: end; visibility: inherit; font-family: Roboto, sans-serif; font-size: 12px; font-weight: 200;" fill="rgb(33, 33, 33)" stroke="none" stroke-width="1px">13</text><text x="0" y="0" dx="0em" dy="0.3em" style="text-anchor: end; visibility: hidden; font-family: Roboto, sans-serif; font-size: 12px; font-weight: 200;" fill="rgb(33, 33, 33)" stroke="none" stroke-width="1px">14</text></g><line x1="30" y1="0" x2="30" y2="377" fill="rgb(0, 0, 0)" stroke="rgb(204, 204, 204)" stroke-width="1px"></line></g></g><g transform="translate(30, 0)" clip-path="url(#clip_0)"><clipPath id="clip_0"><rect width="900" height="377"></rect></clipPath><g><g><g><line x1="0" y1="0" x2="0" y2="377" fill="rgb(0, 0, 0)" stroke="rgb(66, 66, 66)" stroke-width="1px" opacity="0.25"></line><line x1="69.28846153846155" y1="0" x2="69.28846153846155" y2="377" fill="rgb(0, 0, 0)" stroke="rgb(66, 66, 66)" stroke-width="1px" opacity="0.25"></line><line x1="138.5769230769231" y1="0" x2="138.5769230769231" y2="377" fill="rgb(0, 0, 0)" stroke="rgb(66, 66, 66)" stroke-width="1px" opacity="0.25"></line><line x1="207.8653846153846" y1="0" x2="207.8653846153846" y2="377" fill="rgb(0, 0, 0)" stroke="rgb(66, 66, 66)" stroke-width="1px" opacity="0.25"></line><line x1="277.1538461538462" y1="0" x2="277.1538461538462" y2="377" fill="rgb(0, 0, 0)" stroke="rgb(66, 66, 66)" stroke-width="1px" opacity="0.25"></line><line x1="346.44230769230774" y1="0" x2="346.44230769230774" y2="377" fill="rgb(0, 0, 0)" stroke="rgb(66, 66, 66)" stroke-width="1px" opacity="0.25"></line><line x1="415.7307692307692" y1="0" x2="415.7307692307692" y2="377" fill="rgb(0, 0, 0)" stroke="rgb(66, 66, 66)" stroke-width="1px" opacity="0.25"></line><line x1="485.0192307692308" y1="0" x2="485.0192307692308" y2="377" fill="rgb(0, 0, 0)" stroke="rgb(66, 66, 66)" stroke-width="1px" opacity="0.25"></line><line x1="554.3076923076924" y1="0" x2="554.3076923076924" y2="377" fill="rgb(0, 0, 0)" stroke="rgb(66, 66, 66)" stroke-width="1px" opacity="0.25"></line><line x1="623.5961538461538" y1="0" x2="623.5961538461538" y2="377" fill="rgb(0, 0, 0)" stroke="rgb(66, 66, 66)" stroke-width="1px" opacity="0.25"></line><line x1="692.8846153846155" y1="0" x2="692.8846153846155" y2="377" fill="rgb(0, 0, 0)" stroke="rgb(66, 66, 66)" stroke-width="1px" opacity="0.25"></line><line x1="762.1730769230769" y1="0" x2="762.1730769230769" y2="377" fill="rgb(0, 0, 0)" stroke="rgb(66, 66, 66)" stroke-width="1px" opacity="0.25"></line><line x1="831.4615384615385" y1="0" x2="831.4615384615385" y2="377" fill="rgb(0, 0, 0)" stroke="rgb(66, 66, 66)" stroke-width="1px" opacity="0.25"></line><line x1="900.75" y1="0" x2="900.75" y2="377" fill="rgb(0, 0, 0)" stroke="rgb(66, 66, 66)" stroke-width="1px" opacity="0.25"></line></g><g><line x1="0" y1="377" x2="900.75" y2="377" fill="rgb(0, 0, 0)" stroke="rgb(66, 66, 66)" stroke-width="1px" opacity="0.25"></line><line x1="0" y1="342.7272727272727" x2="900.75" y2="342.7272727272727" fill="rgb(0, 0, 0)" stroke="rgb(66, 66, 66)" stroke-width="1px" opacity="0.25"></line><line x1="0" y1="308.45454545454544" x2="900.75" y2="308.45454545454544" fill="rgb(0, 0, 0)" stroke="rgb(66, 66, 66)" stroke-width="1px" opacity="0.25"></line><line x1="0" y1="274.1818181818182" x2="900.75" y2="274.1818181818182" fill="rgb(0, 0, 0)" stroke="rgb(66, 66, 66)" stroke-width="1px" opacity="0.25"></line><line x1="0" y1="239.9090909090909" x2="900.75" y2="239.9090909090909" fill="rgb(0, 0, 0)" stroke="rgb(66, 66, 66)" stroke-width="1px" opacity="0.25"></line><line x1="0" y1="205.63636363636363" x2="900.75" y2="205.63636363636363" fill="rgb(0, 0, 0)" stroke="rgb(66, 66, 66)" stroke-width="1px" opacity="0.25"></line><line x1="0" y1="171.36363636363637" x2="900.75" y2="171.36363636363637" fill="rgb(0, 0, 0)" stroke="rgb(66, 66, 66)" stroke-width="1px" opacity="0.25"></line><line x1="0" y1="137.0909090909091" x2="900.75" y2="137.0909090909091" fill="rgb(0, 0, 0)" stroke="rgb(66, 66, 66)" stroke-width="1px" opacity="0.25"></line><line x1="0" y1="102.81818181818181" x2="900.75" y2="102.81818181818181" fill="rgb(0, 0, 0)" stroke="rgb(66, 66, 66)" stroke-width="1px" opacity="0.25"></line><line x1="0" y1="68.54545454545453" x2="900.75" y2="68.54545454545453" fill="rgb(0, 0, 0)" stroke="rgb(66, 66, 66)" stroke-width="1px" opacity="0.25"></line><line x1="0" y1="34.27272727272729" x2="900.75" y2="34.27272727272729" fill="rgb(0, 0, 0)" stroke="rgb(66, 66, 66)" stroke-width="1px" opacity="0.25"></line><line x1="0" y1="0" x2="900.75" y2="0" fill="rgb(0, 0, 0)" stroke="rgb(66, 66, 66)" stroke-width="1px" opacity="0.25"></line></g></g></g><g><g><line x1="0" y1="479.8181818181818" x2="900.75" y2="479.8181818181818" fill="rgb(0, 0, 0)" stroke="rgb(153, 153, 153)" stroke-width="1.5px"></line></g></g><g><g><line x1="69.28846153846155" y1="0" x2="69.28846153846155" y2="377" fill="rgb(0, 0, 0)" stroke="rgb(153, 153, 153)" stroke-width="1.5px"></line></g></g><g><g><g><g><g><path stroke="rgb(0, 119, 187)" stroke-width="2px" d="M106.41321923076923,-17.35647413315197L109.96078846153847,22.49870746255687L112.73232692307691,59.27489958619652L116.27989615384617,92.18366339250258L119.05143461538461,118.49639155741157L122.59900384615385,140.38419843796152L125.3705423076923,158.38018362750796L128.91811153846155,173.36426876024288L131.68965,184.76084759948452L135.23721923076923,191.1846875734116L138.00875769230768,200.68780348080801L141.5563269230769,204.7440134352327L144.3278653846154,212.495649114854L147.87543461538462,218.0062516267474L150.64697307692308,222.4790942299019L154.1945423076923,225.92438279642735L156.96608076923079,228.88835272826003L160.51364999999998,233.15828734825845L163.28518846153847,235.2827776382569L166.8327576923077,237.45206062097472L169.60429615384615,240.4676654837414L173.15186538461538,243.1106793274258L175.92340384615386,244.95330029742547L179.4709730769231,248.1608334280919L182.2425115384615,250.15029186911778L185.79008076923077,253.40222760824832L188.56161923076922,256.800485608773L192.10918846153848,259.08406162639386L194.8807269230769,261.14927379070303L198.42829615384616,264.0478522267422L201.19983461538462,266.838214892686L204.74740384615384,269.4424128216951L207.5189423076923,270.8398526178252L211.06651153846153,272.10776496993026L213.83805,273.4175749539693L217.38561923076924,274.97791287640945L220.1571576923077,276.58753162883033L223.70472692307692,278.11194216388105L226.4762653846154,279.6769680819605L230.02383461538463,279.3289521469763L232.79537307692306,281.08950654417794L236.3429423076923,283.0407354123278L239.11448076923077,284.7096120452666L242.66204999999997,285.4419403124599L245.43358846153845,286.58012992109116L248.9811576923077,286.63660913468374L251.75269615384616,287.659689174658L255.30026538461536,287.7144403247522L258.07180384615384,287.9871402267616L261.61937307692307,290.0729596426488L264.3909115384616,290.29165042700777L267.93848076923075,291.9358871470183L270.7100192307692,289.7864061257687L274.2575884615385,292.20111998577505L277.02912692307694,293.66863105906975L280.5766961538461,295.06510996187455L283.3482346153846,295.9857819215883L286.89580384615385,296.60112990845727L289.6673423076923,296.241109761869L293.21491153846154,295.78912490530587L295.98645,296.68349486977485L299.5340192307693,298.40326880449425L302.3055576923077,299.1219910650785L305.8531269230769,299.29326738532393L308.6246653846154,300.03013563469113L312.17223461538464,300.31921224781905L314.94377307692304,297.953881991386L318.4913423076923,300.3475940388591L321.2628807692308,301.51511771995183L324.81045,301.8679613734928L327.58198846153846,301.3625190102085L331.1295576923077,302.80154818119394L333.9010961538462,303.2351642110346L337.44866538461537,303.5447405047979L340.2202038461538,303.41737686582815L343.7677730769231,304.3907230728716L346.53931153846156,304.71426387468443L350.08688076923073,304.8028941860167L352.85841923076924,305.9184270328503L356.40598846153847,306.17824266546654L359.1775269230769,306.26261068481233L362.72509615384615,307.00208136172637L365.4966346153846,307.7218018336984L369.0442038461539,307.339254164711L371.8157423076923,308.1181760887758L375.3633115384615,308.1082952697982L378.13485000000003,308.7391494072513L381.68241923076926,308.7935703078585L384.45395769230765,300.5661365632385L388.00152692307694,304.38259386629335L390.7730653846154,306.31159294503124L394.3206346153846,307.4932381399269L397.0921730769231,307.5857596363032L400.6397423076923,309.36325665181033L403.41128076923076,309.60339258070246L406.95885,308.73729784353753L409.73038846153844,310.2254229316419L413.2779576923077,311.34672705055567L416.0494961538462,311.8485734055986L419.59706538461535,312.3346653564196L422.36860384615386,312.38511815514147L425.9161730769231,313.03901347426165L428.68771153846154,313.41360270000774L432.23528076923077,313.3680249740807L435.0068192307692,313.1390967476986L438.55438846153845,312.8283392450747L441.3259269230769,313.15415705809215L444.87349615384613,314.0986576585669L447.64503461538465,313.86332646714385L451.1926038461538,313.3336139964917L453.96414230769227,313.282430905247L457.51171153846155,313.83422039853366L460.28325,314.64541742366833L463.83081923076924,314.7292666222752L466.60235769230775,314.9343397099707L470.14992692307686,315.83067844492876L472.9214653846154,315.9386017691057L476.4690346153846,315.84087199341474L479.24057307692306,316.4131334532843L482.78814230769234,316.6695416396586L485.5596807692308,316.68531195403773L489.10725,316.94741627134954L491.87878846153853,317.0450156266791L495.42635769230765,317.30086201910717L498.1978961538461,317.2692222916701L501.7454653846154,317.0568411933281L504.51700384615384,317.4591909454946L508.06457307692307,317.82551640528726L510.8361115384616,317.7418443467624L514.3836807692309,318.1689666031191L517.1552192307691,318.44581190836584L520.7027884615384,317.75081917210804L523.4743269230769,318.2452583801791L527.0218961538461,319.305633539571L529.7934346153846,319.57978052338416L533.3410038461539,319.84180081261553L536.1125423076924,319.6261880398376L539.6601115384615,319.786566539279L542.43165,319.63513924427383L545.9792192307692,320.1989180538996L548.7507576923077,320.31751585891783L552.298326923077,320.6849903940073L555.0698653846154,320.9774148435377L558.6174346153847,320.9763704065887L561.3889730769231,321.2337396793392L564.9365423076923,321.452191196686L567.7080807692307,321.8582411782777L571.25565,322.21894237098473L574.0271884615385,322.00063271287956L577.5747576923077,322.49123101267094L580.3462961538462,322.4941245973986L583.8938653846154,322.5963867949881L586.6654038461538,322.7384368903085L590.212973076923,322.9139364350551L592.9845115384616,323.4574834437579L596.5320807692308,323.6982253033763L599.3036192307692,323.5195005548396L602.8511884615385,323.5723438584609L605.6227269230769,324.0959986099429L609.1702961538462,324.3278840440896L611.9418346153846,324.5907607893633L615.4894038461538,324.62809483476855L618.2609423076923,324.2661063557062L621.8085115384615,324.334410378809L624.58005,324.42017126973263L628.1276192307693,324.7451033645617L630.8991576923078,324.4612924521144L634.4467269230769,324.7530282698693L637.2182653846154,325.33820792538927L640.7658346153846,325.0806029848256L643.537373076923,325.7109380848407L647.0849423076924,325.9004681368264L649.8564807692308,325.69460511887894L653.40405,324.1292987907654L656.1755884615384,325.52836862202116L659.7231576923076,325.79933958321914L662.4946961538461,326.24958301878576L666.0422653846153,326.0819589995594L668.8138038461539,326.1688004912884L672.3613730769231,325.99841845686575L675.1329115384616,326.53390011961284L678.6804807692308,327.0778067868001L681.4520192307692,326.66233811579787L684.9995884615385,326.55081773445227L687.771126923077,326.9762987912229L691.3186961538462,326.8598803066441L694.0902346153846,326.8739251245992L697.6378038461539,327.1256462284072L700.4093423076923,327.35286113473273L703.9569115384614,327.46594449247965L706.72845,327.4197760842207L710.2760192307692,327.84914889249796L713.0475576923077,327.99593767548123L716.5951269230769,328.0918292019962L719.3666653846154,327.99039071882953L722.9142346153847,328.40164966525657L725.6857730769232,328.50575453290196L729.2333423076923,328.86926609642796L732.0048807692308,327.4417541970136L735.55245,328.07819416762777L738.3239884615384,328.38087542114215L741.8715576923078,328.4256842915758L744.6430961538462,328.59167705790554L748.1906653846154,328.608298526558L750.9622038461538,328.73408750674287L754.509773076923,328.55666382301547L757.2813115384615,327.5506002031L760.8288807692308,328.3582815730818L763.6004192307693,328.15844647042707L767.1479884615385,328.55877979423803L769.919526923077,328.7596662467654L773.4670961538461,328.36637653375374L776.2386346153846,327.3547414281757L779.7862038461539,328.7612883217048L782.5577423076923,329.32943987215657L786.1053115384616,329.7698501505722L788.87685,329.81063537457294L792.4244192307692,329.75734884698056L795.1959576923077,329.7761498401097L798.7435269230768,330.0177879182038L801.5150653846154,329.90272221089987L805.0626346153846,329.5510684947195L807.8341730769231,329.7895868046731L811.3817423076923,329.8949727408461L814.1532807692308,330.24121735158883L817.7008500000001,330.3123015134424L820.4723884615385,329.70985431268963L824.0199576923077,329.2549068357439L826.7914961538461,329.7982401809085" style="fill: none;" fill="none"></path></g><g><path stroke="rgb(255, 112, 67)" stroke-width="2px" d="M109.96078846153847,-0.07853768717243215L112.73232692307691,40.11894111327482L116.27989615384617,76.49504050561558L119.05143461538461,104.30230479874702L122.59900384615385,129.063112772599L125.3705423076923,148.79682639324466L128.91811153846155,164.99544775791227L131.68965,177.75901044620886L135.23721923076923,186.175825275041L138.00875769230768,194.95444754019215L141.5563269230769,201.61060588872638L144.3278653846154,208.38606978305918L147.87543461538462,214.69227773097268L150.64697307692308,219.4936669993143L154.1945423076923,224.29148022607097L156.96608076923079,226.77086496186837L160.51364999999998,229.8770772144653L163.28518846153847,233.02408336279015L166.8327576923077,235.90425747660058L169.60429615384615,237.90907309963507L173.15186538461538,240.5524043346547L175.92340384615386,244.2576801253882L179.4709730769231,246.88914680566148L182.2425115384615,247.57134594371593L185.79008076923077,251.158492635232L188.56161923076922,254.33921478628704L192.10918846153848,256.9229532639865L194.8807269230769,256.72010916210024L198.42829615384616,259.50347994415586L201.19983461538462,263.42204219894785L204.74740384615384,266.18202338881906L207.5189423076923,267.8272979527548L211.06651153846153,269.07420400593554L213.83805,271.4306401828332L217.38561923076924,273.11693806553467L220.1571576923077,273.9326328246074L223.70472692307692,275.5429693584824L226.4762653846154,277.8061390106267L230.02383461538463,278.2891608781635L232.79537307692306,279.61300382060307L236.3429423076923,280.8783922387641L239.11448076923077,281.8904112324308L242.66204999999997,283.00846987636106L245.43358846153845,283.5565466655296L248.9811576923077,284.8262244956227L251.75269615384616,285.77995762966907L255.30026538461536,287.180815056872L258.07180384615384,287.01443479467673L261.61937307692307,289.0381458337208L264.3909115384616,289.15725433331244L267.93848076923075,289.4080359884374L270.7100192307692,289.7280225679603L274.2575884615385,290.574780442382L277.02912692307694,292.3620614701356L280.5766961538461,293.42356558622174L283.3482346153846,292.9157340720533L286.89580384615385,293.7334583528888L289.6673423076923,294.07069558668445L293.21491153846154,295.06621183831663L295.98645,295.5035741766316L299.5340192307693,296.09769877108795L302.3055576923077,296.3276236682813L305.8531269230769,297.2504439859308L308.6246653846154,297.9948728777923L312.17223461538464,298.47067871352505L314.94377307692304,297.5144909995606L318.4913423076923,298.76441943729964L321.2628807692308,299.9177946247488L324.81045,300.33821376007324L327.58198846153846,299.89206481318945L331.1295576923077,300.0981513433858L333.9010961538462,301.0595660768056L337.44866538461537,302.702966333428L340.2202038461538,302.1740819698566L343.7677730769231,302.5193551461585L346.53931153846156,303.38855412704055L350.08688076923073,304.0959270748904L352.85841923076924,304.52689438455496L356.40598846153847,303.67764871083887L359.1775269230769,304.28056863892897L362.72509615384615,305.0721155315296L365.4966346153846,305.225632256845L369.0442038461539,305.81520175567397L371.8157423076923,306.09309459813204L375.3633115384615,306.62082980977704L378.13485000000003,306.58968271557814L381.68241923076926,306.51811009709814L384.45395769230765,306.80235011074353L388.00152692307694,307.82401203330403L390.7730653846154,307.8850834062839L394.3206346153846,308.1247394247629L397.0921730769231,307.766648020536L400.6397423076923,308.75313107902855L403.41128076923076,309.5995391629423L406.95885,309.41818114977065L409.73038846153844,309.2774592255846L413.2779576923077,309.6398891241347L416.0494961538462,309.80776388829923L419.59706538461535,310.5525209130188L422.36860384615386,310.23658521085844L425.9161730769231,310.4176392285436L428.68771153846154,311.2609262911434L432.23528076923077,311.93393859065395L435.0068192307692,311.77487724519045L438.55438846153845,311.83910022240286L441.3259269230769,311.2878589752996L444.87349615384613,312.15360820813896L447.64503461538465,312.53471513323524L451.1926038461538,312.3821216068798L453.96414230769227,312.10651614483635L457.51171153846155,313.0533717937799L460.28325,313.1270131303118L463.83081923076924,312.9872662520718L466.60235769230775,312.12679590777606L470.14992692307686,313.7223974195158L472.9214653846154,313.4911218242071L476.4690346153846,313.37696828689593L479.24057307692306,313.37046657297316L482.78814230769234,313.77655335839574L485.5596807692308,314.54757822336705L489.10725,314.0917702353008L491.87878846153853,314.9629998152694L495.42635769230765,315.2601782419338L498.1978961538461,315.6546836295919L501.7454653846154,315.80446432065503L504.51700384615384,315.6024816569127L508.06457307692307,315.97240409147093L510.8361115384616,315.9022646046795L514.3836807692309,316.41829723590223L517.1552192307691,317.0277822598597L520.7027884615384,316.546048767093L523.4743269230769,315.56327566417536L527.0218961538461,316.7115788947654L529.7934346153846,317.4453458471853L533.3410038461539,318.2098152665731L536.1125423076924,318.0253407105143L539.6601115384615,318.1748025860986L542.43165,317.85735510540337L545.9792192307692,318.60517547904124L548.7507576923077,318.8281318828005L552.298326923077,318.90020294476597L555.0698653846154,319.47364236136974L558.6174346153847,319.48573733970665L561.3889730769231,319.99940948576096L564.9365423076923,319.8189128950476L567.7080807692307,320.09686035604716L571.25565,320.4473186436598L574.0271884615385,321.21546153337493L577.5747576923077,320.7601992375299L580.3462961538462,320.4110622631045L583.8938653846154,321.38460129440836L586.6654038461538,321.1932203235144L590.212973076923,322.12071048390357L592.9845115384616,320.92588238872526L596.5320807692308,322.1533193016767L599.3036192307692,321.80139643968187L602.8511884615385,321.3265922791478L605.6227269230769,320.88457981886586L609.1702961538462,322.44440579065594L611.9418346153846,322.8783052293485L615.4894038461538,323.137729712011L618.2609423076923,323.0531625804303L621.8085115384615,323.55704786467L624.58005,322.96446973137523L628.1276192307693,323.41814510745195L630.8991576923078,322.89758171598817L634.4467269230769,323.3233367971766L637.2182653846154,324.2496890983477L640.7658346153846,323.3778645752584L643.537373076923,324.73798918152863L647.0849423076924,324.64974135576335L649.8564807692308,324.9809854564911L653.40405,324.1513827514448L656.1755884615384,324.7322006322567L659.7231576923076,324.70766376730455L662.4946961538461,325.30509938329095L666.0422653846153,325.91366652403417L668.8138038461539,324.90423830275944L672.3613730769231,325.369787133378L675.1329115384616,325.59757215559836L678.6804807692308,325.9573641877737L681.4520192307692,326.39602050171675L684.9995884615385,325.95706815874047L687.771126923077,326.12998947062823L691.3186961538462,326.2019920295727L694.0902346153846,325.9178334810992L697.6378038461539,326.6957661071976L700.4093423076923,326.29197979274204L703.9569115384614,326.2969571044938L706.72845,326.66923845572825L710.2760192307692,326.2717357052452L713.0475576923077,327.04024643954335L716.5951269230769,327.4077037615254L719.3666653846154,327.6763035777993L722.9142346153847,327.41846112533943L725.6857730769232,326.91173145411767L729.2333423076923,327.35380767129874L732.0048807692308,327.97949726244167L735.55245,327.73207835471845L738.3239884615384,327.48899080389106L741.8715576923078,326.81225510855535L744.6430961538462,327.83771296448066L748.1906653846154,327.6623697352258L750.9622038461538,328.02430463698954L754.509773076923,328.4723525575843L757.2813115384615,327.9617677919026L760.8288807692308,327.85297826588976L763.6004192307693,327.81593133334087L767.1479884615385,327.99197050363443L769.919526923077,328.2474482843751L773.4670961538461,328.50005165384147L776.2386346153846,328.68029804885674L779.7862038461539,328.34452448458194L782.5577423076923,328.97643683166825L786.1053115384616,328.7602266051156L788.87685,328.90435517568807L792.4244192307692,329.0947053108072L795.1959576923077,328.4737181685622L798.7435269230768,328.9427259198362L801.5150653846154,329.2437611934645L805.0626346153846,328.6600758557327L807.8341730769231,328.8437613767541L811.3817423076923,328.788573415408L814.1532807692308,329.6520041934264L817.7008500000001,328.8391744149151L820.4723884615385,328.90496467230884L824.0199576923077,329.41488085305684L826.7914961538461,328.3007448972767" style="fill: none;" fill="none"></path></g></g></g></g><g opacity="0.2"><g><g><g><path stroke="rgb(0, 119, 187)" stroke-width="2px" d="M100.09411153846153,-29.91976902701641L103.64168076923077,21.094879063692957L106.41321923076923,53.37895167957651L109.96078846153847,82.1513457731767L112.73232692307691,114.36713938279584L116.27989615384617,141.50812608545476L119.05143461538461,157.9469260302457L122.59900384615385,173.20664657245982L125.3705423076923,185.36959223313764L128.91811153846155,195.83811378479004L131.68965,201.8546741658991L135.23721923076923,200.8200952356512L138.00875769230768,214.94216463782573L141.5563269230769,210.8282482840798L144.3278653846154,224.1230108087713L147.87543461538462,226.27211622758347L150.64697307692308,229.1883390600031L154.1945423076923,231.0923068306663L156.96608076923079,233.33430307561702L160.51364999999998,239.56318534504283L163.28518846153847,238.46951189908114L166.8327576923077,240.70598437569356L169.60429615384615,244.99107217788696L173.15186538461538,247.07519977742976L175.92340384615386,247.7172316204418L179.4709730769231,252.97213298624212L182.2425115384615,253.13447947935623L185.79008076923077,258.2801311666315L188.56161923076922,261.897872578014L192.10918846153848,262.5094256401062L194.8807269230769,264.2470920302651L198.42829615384616,268.3957198749889L201.19983461538462,271.02375888824463L204.74740384615384,273.34870971332896L207.5189423076923,272.93601231141525L211.06651153846153,274.00963349775833L213.83805,275.38228992982346L217.38561923076924,277.31841975992376L220.1571576923077,279.00195975737137L223.70472692307692,280.3985579664057L226.4762653846154,282.02450695904815L230.02383461538463,278.8069282445041L232.79537307692306,283.7303381399675L236.3429423076923,285.9675787145441L239.11448076923077,287.2129269946705L242.66204999999997,286.54043271324855L245.43358846153845,288.2874143340371L248.9811576923077,286.7213279550726L251.75269615384616,289.19430923461914L255.30026538461536,287.7965670498935L258.07180384615384,288.3961900797757L261.61937307692307,293.2016887664795L264.3909115384616,290.61968660354614L267.93848076923075,294.40224222703415L270.7100192307692,286.5621845938943L274.2575884615385,295.8231907757846L277.02912692307694,295.8698976690119L280.5766961538461,297.15982831608164L283.3482346153846,297.3667898611589L286.89580384615385,297.5241518887607L289.6673423076923,295.70107954198664L293.21491153846154,295.11114762046117L295.98645,298.0250498164784L299.5340192307693,300.9829297065735L302.3055576923077,300.20007445595485L305.8531269230769,299.55018186569214L308.6246653846154,301.1354380087419L312.17223461538464,300.752827167511L314.94377307692304,294.4058866067366L318.4913423076923,303.9381621100686L321.2628807692308,303.26640324159104L324.81045,302.39722685380417L327.58198846153846,300.6043554652821L331.1295576923077,304.960091937672L333.9010961538462,303.8855882557956L337.44866538461537,304.00910494544286L340.2202038461538,303.2263314073736L343.7677730769231,305.85074238343674L346.53931153846156,305.19957507740367L350.08688076923073,304.93583965301514L352.85841923076924,307.5917263031006L356.40598846153847,306.56796611439097L359.1775269230769,306.3891627138311L362.72509615384615,308.1112873770974L365.4966346153846,308.8013825416565L369.0442038461539,306.7654326612299L371.8157423076923,309.28655897487295L375.3633115384615,308.0934740413319L378.13485000000003,309.6854306134311L381.68241923076926,308.8752016587691L384.45395769230765,288.2249859463085L388.00152692307694,310.1072798208757L390.7730653846154,309.2050915631381L394.3206346153846,309.2657059322704L397.0921730769231,307.72454188086766L400.6397423076923,312.02950217507106L403.41128076923076,309.9635964740406L406.95885,307.4381557377902L409.73038846153844,312.45761056379837L413.2779576923077,313.02868322892624L416.0494961538462,312.6013429381631L419.59706538461535,313.06380328265107L422.36860384615386,312.46079735322434L425.9161730769231,314.0198564529419L428.68771153846154,313.97548653862697L432.23528076923077,313.2996583851901L435.0068192307692,312.79570440812546L438.55438846153845,312.3622029911388L441.3259269230769,313.6428837776184L444.87349615384613,315.515408559279L447.64503461538465,313.5103296800093L451.1926038461538,312.53904529051346L453.96414230769227,313.20565626837987L457.51171153846155,314.6619046384638L460.28325,315.8622129613703L463.83081923076924,314.85504042018545L466.60235769230775,315.24194934151393L470.14992692307686,317.175186547366L472.9214653846154,316.1004867553711L476.4690346153846,315.6942773298784L479.24057307692306,317.27152564308864L482.78814230769234,317.05415391921997L485.5596807692308,316.70896742560643L489.10725,317.3405727473172L491.87878846153853,317.1914146596735L495.42635769230765,317.6846316077493L498.1978961538461,317.2217627005144L501.7454653846154,316.73826954581517L504.51700384615384,318.06271557374436L508.06457307692307,318.37500459497625L510.8361115384616,317.6163362589749L514.3836807692309,318.80964998765427L517.1552192307691,318.8610798662359L520.7027884615384,316.70833006772125L523.4743269230769,318.9869171922857L527.0218961538461,320.89619627865875L529.7934346153846,319.9910009991039L533.3410038461539,320.2348312464627L536.1125423076924,319.3027688806707L539.6601115384615,320.02713428844106L542.43165,319.4079983017661L545.9792192307692,321.0445862683383L548.7507576923077,320.49541256644505L552.298326923077,321.2362021966414L555.0698653846154,321.41605151783335L558.6174346153847,320.9748037511652L561.3889730769231,321.6197935884649L564.9365423076923,321.7798684727062L567.7080807692307,322.4673161506653L571.25565,322.75999416004527L574.0271884615385,321.6731682257219L577.5747576923077,323.22712846235794L580.3462961538462,322.49846497449005L583.8938653846154,322.7497800913724L586.6654038461538,322.95151203328913L590.212973076923,323.17718575217503L592.9845115384616,324.2728039568121L596.5320807692308,324.05933809280396L599.3036192307692,323.2514134320346L602.8511884615385,323.6516088138927L605.6227269230769,324.881480737166L609.1702961538462,324.67571219530976L611.9418346153846,324.9850759072737L615.4894038461538,324.68409590287644L618.2609423076923,323.72312363711274L621.8085115384615,324.43686641346324L624.58005,324.5488126061179L628.1276192307693,325.2325015068054L630.8991576923078,324.03557608344335L634.4467269230769,325.19063199650157L637.2182653846154,326.2159774086692L640.7658346153846,324.69419557398015L643.537373076923,326.6564407348633L647.0849423076924,326.18476321480495L649.8564807692308,325.38581059195775L653.40405,321.78133929859507L656.1755884615384,327.62697336890477L659.7231576923076,326.2057960250161L662.4946961538461,326.92494817213577L666.0422653846153,325.83052297071976L668.8138038461539,326.29906272888184L672.3613730769231,325.74284540523183L675.1329115384616,327.33712261373347L678.6804807692308,327.893666787581L681.4520192307692,326.03913510929453L684.9995884615385,326.383537162434L687.771126923077,327.61452037637883L691.3186961538462,326.6852525797757L694.0902346153846,326.894992351532L697.6378038461539,327.5032278841192L700.4093423076923,327.6936834942211L703.9569115384614,327.6355695290999L706.72845,327.3505234718323L710.2760192307692,328.4932081049139L713.0475576923077,328.21612084995616L716.5951269230769,328.23566649176854L719.3666653846154,327.8382329940796L722.9142346153847,329.01853808489716L725.6857730769232,328.66191183437L729.2333423076923,329.41453344171697L732.0048807692308,325.3004863478921L735.55245,329.03285412354904L738.3239884615384,328.83489730141383L741.8715576923078,328.49289759722626L744.6430961538462,328.8406662074002L748.1906653846154,328.6332307295366L750.9622038461538,328.92277097702026L754.509773076923,328.2905282974243L757.2813115384615,326.0415047732266L760.8288807692308,329.5698036280545L763.6004192307693,327.85869381644505L767.1479884615385,329.1592797799544L769.919526923077,329.06099592555654L773.4670961538461,327.77644196423614L776.2386346153846,325.83728876980865L779.7862038461539,330.8711086619984L782.5577423076923,330.1816671978344L786.1053115384616,330.4304655681957L788.87685,329.87181321057403L792.4244192307692,329.67741905559194L795.1959576923077,329.80435132980347L798.7435269230768,330.3802450353449L801.5150653846154,329.73012364994395L805.0626346153846,329.02358792044896L807.8341730769231,330.1473642696034L811.3817423076923,330.05305164510554L814.1532807692308,330.76058426770294L817.7008500000001,330.41892775622284L820.4723884615385,328.8061835115606L824.0199576923077,328.57248562032527L826.7914961538461,330.61324019865555" style="fill: none;" fill="none"></path></g><g><path stroke="rgb(255, 112, 67)" stroke-width="2px" d="M103.64168076923077,-1.848501292141963L106.41321923076923,35.73793133822355L109.96078846153847,72.22807572104713L112.73232692307691,100.33640826832163L116.27989615384617,131.01643085479736L119.05143461538461,145.99358940124512L122.59900384615385,166.19384678927335L125.3705423076923,178.3923864364624L128.91811153846155,189.29091210798782L131.68965,196.9031878384677L135.23721923076923,198.80058592016047L138.00875769230768,208.12209207361394L141.5563269230769,211.59471199729228L144.3278653846154,218.54918536272916L147.87543461538462,224.15154483101583L150.64697307692308,226.69573042609477L154.1945423076923,231.488187789917L156.96608076923079,230.48993825912476L160.51364999999998,234.53639273210007L163.28518846153847,237.744590845975L166.8327576923077,240.22451769221914L169.60429615384615,240.9162961352955L173.15186538461538,244.51740087162364L175.92340384615386,249.8155935460871L179.4709730769231,250.8363467129794L182.2425115384615,248.59464463320646L185.79008076923077,256.53921261700714L188.56161923076922,259.11029798334295L192.10918846153848,260.7985609661449L194.8807269230769,256.41584300994873L198.42829615384616,263.6785361116583L201.19983461538462,269.29988557642156L204.74740384615384,270.3219951716336L207.5189423076923,270.29520979794586L211.06651153846153,270.94456308538264L213.83805,274.9652944478122L217.38561923076924,275.64638488942927L220.1571576923077,275.1561749631708L223.70472692307692,277.9584741592407L226.4762653846154,281.2008934887973L230.02383461538463,279.0136936794628L232.79537307692306,281.59876823425293L236.3429423076923,282.77647486600006L239.11448076923077,283.40843972292816L242.66204999999997,284.68555784225464L245.43358846153845,284.37866184928197L248.9811576923077,286.73074124076146L251.75269615384616,287.2105573307384L255.30026538461536,289.28210119767624L258.07180384615384,286.7648644013838L261.61937307692307,292.07371239228684L264.3909115384616,289.3359170826999L267.93848076923075,289.7842084711248L270.7100192307692,290.2080024372448L274.2575884615385,291.84491725401443L277.02912692307694,295.0429830117659L280.5766961538461,295.015821760351L283.3482346153846,292.1539868008007L286.89580384615385,294.96004477414215L289.6673423076923,294.57655143737793L293.21491153846154,296.5594862157648L295.98645,296.15961768410426L299.5340192307693,296.9888856627725L302.3055576923077,296.67251101407135L305.8531269230769,298.6346744624051L308.6246653846154,299.11151621558446L312.17223461538464,299.1843874671243L314.94377307692304,296.08020942861384L318.4913423076923,300.63931209390813L321.2628807692308,301.6478574059226L324.81045,300.96884246305984L327.58198846153846,299.22284139286387L331.1295576923077,300.40728113868016L333.9010961538462,302.5016881769354L337.44866538461537,305.16806671836156L340.2202038461538,301.3807554244995L343.7677730769231,303.03726491061127L346.53931153846156,304.6923525983637L350.08688076923073,305.1569864966653L352.85841923076924,305.1733453490518L356.40598846153847,302.40378020026463L359.1775269230769,305.18494853106415L362.72509615384615,306.25943587043065L365.4966346153846,305.4559073448181L369.0442038461539,306.69955600391734L371.8157423076923,306.50993386181915L375.3633115384615,307.4124326272444L378.13485000000003,306.5429620742798L381.68241923076926,306.4107511693781L384.45395769230765,307.2287101312117L388.00152692307694,309.3565049171448L390.7730653846154,307.97669046575373L394.3206346153846,308.4842234524814L397.0921730769231,307.22951091419566L400.6397423076923,310.2328556667675L403.41128076923076,310.8691512888128L406.95885,309.14614413001317L409.73038846153844,309.0663763393055L413.2779576923077,310.1835339719599L416.0494961538462,310.0595760345459L419.59706538461535,311.6696564500982L422.36860384615386,309.76268165761775L425.9161730769231,310.68922025507146L428.68771153846154,312.525856885043L432.23528076923077,312.94345703991974L435.0068192307692,311.5362852269953L438.55438846153845,311.93543468822133L441.3259269230769,310.4609971046448L444.87349615384613,313.452232057398L447.64503461538465,313.10637552087957L451.1926038461538,312.15323131734675L453.96414230769227,311.69310795177114L457.51171153846155,314.4736552671953L460.28325,313.2374751351096L463.83081923076924,312.7776459347118L466.60235769230775,310.83609039133245L470.14992692307686,316.1157996871255L472.9214653846154,313.1442084312439L476.4690346153846,313.20573798092926L479.24057307692306,313.3607140020891L482.78814230769234,314.38568353652954L485.5596807692308,315.7041155208241L489.10725,313.4080582532016L491.87878846153853,316.26984418522227L495.42635769230765,315.70594588193023L498.1978961538461,316.246441711079L501.7454653846154,316.02913535724986L504.51700384615384,315.2995076612993L508.06457307692307,316.52728774330836L510.8361115384616,315.7970553744923L514.3836807692309,317.1923461827365L517.1552192307691,317.9420097957958L520.7027884615384,315.823448527943L523.4743269230769,314.0891160097989L527.0218961538461,318.43403374065053L529.7934346153846,318.5459962758151L533.3410038461539,319.35651939565486L536.1125423076924,317.74862887642604L539.6601115384615,318.3989953994751L542.43165,317.3811838843606L545.9792192307692,319.72690603949803L548.7507576923077,319.1625664884394L552.298326923077,319.0083095377142L555.0698653846154,320.3338014862754L558.6174346153847,319.5038798072122L561.3889730769231,320.76991770484227L564.9365423076923,319.5481680089777L567.7080807692307,320.5137815475464L571.25565,320.9730060750788L574.0271884615385,322.3676758679477L577.5747576923077,320.0773057937622L580.3462961538462,319.8873568014665L583.8938653846154,322.8449098413641L586.6654038461538,320.9061488671736L590.212973076923,323.5119457244873L592.9845115384616,319.1336402459578L596.5320807692308,323.9944746711038L599.3036192307692,321.2735121466897L602.8511884615385,320.6143860383467L605.6227269230769,320.22156112844294L609.1702961538462,324.78414474834096L611.9418346153846,323.5291543873874L615.4894038461538,323.52686643600464L618.2609423076923,322.9263118830594L621.8085115384615,324.3128757910295L624.58005,322.0756025314331L628.1276192307693,324.0986581715671L630.8991576923078,322.11673662879247L634.4467269230769,323.9619694189592L637.2182653846154,325.6392175501043L640.7658346153846,322.07012779062444L643.537373076923,326.7781760909341L647.0849423076924,324.5173696171154L649.8564807692308,325.47785160758275L653.40405,322.90697869387543L656.1755884615384,325.6034274534746L659.7231576923076,324.6708584698764L662.4946961538461,326.2012528072704L666.0422653846153,326.826517235149L668.8138038461539,323.3900959708474L672.3613730769231,326.0681103793057L675.1329115384616,325.9392496889288L678.6804807692308,326.49705223603684L681.4520192307692,327.0540049726313L684.9995884615385,325.298639644276L687.771126923077,326.38937143845993L691.3186961538462,326.30999586798924L694.0902346153846,325.491595658389L697.6378038461539,327.8626650463451L700.4093423076923,325.6863003210588L703.9569115384614,326.3044230721213L706.72845,327.22766048258L710.2760192307692,325.6754815795205L713.0475576923077,328.19301254099065L716.5951269230769,327.95888974449855L719.3666653846154,328.07920330221003L722.9142346153847,327.03169744664973L725.6857730769232,326.15163694728506L729.2333423076923,328.0169219970703L732.0048807692308,328.91803164915603L735.55245,327.36094999313354L738.3239884615384,327.12435947765005L741.8715576923078,325.79715156555176L744.6430961538462,329.3758997483687L748.1906653846154,327.39935489134353L750.9622038461538,328.5672069896351L754.509773076923,329.14442443847656L757.2813115384615,327.19589064337987L760.8288807692308,327.6897939768704L763.6004192307693,327.76036093451756L767.1479884615385,328.2560292590748L769.919526923077,328.63066495548594L773.4670961538461,328.8789567080411L776.2386346153846,328.95066764137965L779.7862038461539,327.8408641381697L782.5577423076923,329.92430535229767L786.1053115384616,328.43591126528656L788.87685,329.1205480315469L792.4244192307692,329.380230513486L795.1959576923077,327.54223745519465L798.7435269230768,329.6462375467474L801.5150653846154,329.6953141039068L805.0626346153846,327.784547849135L807.8341730769231,329.1192896582864L811.3817423076923,328.7057914733887L814.1532807692308,330.9471503604542L817.7008500000001,327.619929747148L820.4723884615385,329.00365005839956L824.0199576923077,330.17975512417877L826.7914961538461,326.6295409636064" style="fill: none;" fill="none"></path></g></g></g></g></g></g><g transform="translate(30, 377)" clip-path="url(#clip_1)"><clipPath id="clip_1"><rect width="900" height="23"></rect></clipPath><g><g><line x1="0" y1="0" x2="0" y2="5" style="visibility: inherit;" fill="rgb(0, 0, 0)" stroke="rgb(204, 204, 204)" stroke-width="1px"></line><line x1="69.28846153846155" y1="0" x2="69.28846153846155" y2="5" style="visibility: inherit;" fill="rgb(0, 0, 0)" stroke="rgb(204, 204, 204)" stroke-width="1px"></line><line x1="138.5769230769231" y1="0" x2="138.5769230769231" y2="5" style="visibility: inherit;" fill="rgb(0, 0, 0)" stroke="rgb(204, 204, 204)" stroke-width="1px"></line><line x1="207.8653846153846" y1="0" x2="207.8653846153846" y2="5" style="visibility: inherit;" fill="rgb(0, 0, 0)" stroke="rgb(204, 204, 204)" stroke-width="1px"></line><line x1="277.1538461538462" y1="0" x2="277.1538461538462" y2="5" style="visibility: inherit;" fill="rgb(0, 0, 0)" stroke="rgb(204, 204, 204)" stroke-width="1px"></line><line x1="346.44230769230774" y1="0" x2="346.44230769230774" y2="5" style="visibility: inherit;" fill="rgb(0, 0, 0)" stroke="rgb(204, 204, 204)" stroke-width="1px"></line><line x1="415.7307692307692" y1="0" x2="415.7307692307692" y2="5" style="visibility: inherit;" fill="rgb(0, 0, 0)" stroke="rgb(204, 204, 204)" stroke-width="1px"></line><line x1="485.0192307692308" y1="0" x2="485.0192307692308" y2="5" style="visibility: inherit;" fill="rgb(0, 0, 0)" stroke="rgb(204, 204, 204)" stroke-width="1px"></line><line x1="554.3076923076924" y1="0" x2="554.3076923076924" y2="5" style="visibility: inherit;" fill="rgb(0, 0, 0)" stroke="rgb(204, 204, 204)" stroke-width="1px"></line><line x1="623.5961538461538" y1="0" x2="623.5961538461538" y2="5" style="visibility: inherit;" fill="rgb(0, 0, 0)" stroke="rgb(204, 204, 204)" stroke-width="1px"></line><line x1="692.8846153846155" y1="0" x2="692.8846153846155" y2="5" style="visibility: inherit;" fill="rgb(0, 0, 0)" stroke="rgb(204, 204, 204)" stroke-width="1px"></line><line x1="762.1730769230769" y1="0" x2="762.1730769230769" y2="5" style="visibility: inherit;" fill="rgb(0, 0, 0)" stroke="rgb(204, 204, 204)" stroke-width="1px"></line><line x1="831.4615384615385" y1="0" x2="831.4615384615385" y2="5" style="visibility: inherit;" fill="rgb(0, 0, 0)" stroke="rgb(204, 204, 204)" stroke-width="1px"></line><line x1="900.75" y1="0" x2="900.75" y2="5" style="visibility: inherit;" fill="rgb(0, 0, 0)" stroke="rgb(204, 204, 204)" stroke-width="1px"></line></g><g transform="translate(0, 8)"><text x="0" y="0" dx="0em" dy="0.95em" style="text-anchor: middle; visibility: hidden; font-family: Roboto, sans-serif; font-size: 12px; font-weight: 200;" fill="rgb(33, 33, 33)" stroke="none" stroke-width="1px">-5k</text><text x="69.28846153846155" y="0" dx="0em" dy="0.95em" style="text-anchor: middle; visibility: inherit; font-family: Roboto, sans-serif; font-size: 12px; font-weight: 200;" fill="rgb(33, 33, 33)" stroke="none" stroke-width="1px">0</text><text x="138.5769230769231" y="0" dx="0em" dy="0.95em" style="text-anchor: middle; visibility: inherit; font-family: Roboto, sans-serif; font-size: 12px; font-weight: 200;" fill="rgb(33, 33, 33)" stroke="none" stroke-width="1px">5k</text><text x="207.8653846153846" y="0" dx="0em" dy="0.95em" style="text-anchor: middle; visibility: inherit; font-family: Roboto, sans-serif; font-size: 12px; font-weight: 200;" fill="rgb(33, 33, 33)" stroke="none" stroke-width="1px">10k</text><text x="277.1538461538462" y="0" dx="0em" dy="0.95em" style="text-anchor: middle; visibility: inherit; font-family: Roboto, sans-serif; font-size: 12px; font-weight: 200;" fill="rgb(33, 33, 33)" stroke="none" stroke-width="1px">15k</text><text x="346.44230769230774" y="0" dx="0em" dy="0.95em" style="text-anchor: middle; visibility: inherit; font-family: Roboto, sans-serif; font-size: 12px; font-weight: 200;" fill="rgb(33, 33, 33)" stroke="none" stroke-width="1px">20k</text><text x="415.7307692307692" y="0" dx="0em" dy="0.95em" style="text-anchor: middle; visibility: inherit; font-family: Roboto, sans-serif; font-size: 12px; font-weight: 200;" fill="rgb(33, 33, 33)" stroke="none" stroke-width="1px">25k</text><text x="485.0192307692308" y="0" dx="0em" dy="0.95em" style="text-anchor: middle; visibility: inherit; font-family: Roboto, sans-serif; font-size: 12px; font-weight: 200;" fill="rgb(33, 33, 33)" stroke="none" stroke-width="1px">30k</text><text x="554.3076923076924" y="0" dx="0em" dy="0.95em" style="text-anchor: middle; visibility: inherit; font-family: Roboto, sans-serif; font-size: 12px; font-weight: 200;" fill="rgb(33, 33, 33)" stroke="none" stroke-width="1px">35k</text><text x="623.5961538461538" y="0" dx="0em" dy="0.95em" style="text-anchor: middle; visibility: inherit; font-family: Roboto, sans-serif; font-size: 12px; font-weight: 200;" fill="rgb(33, 33, 33)" stroke="none" stroke-width="1px">40k</text><text x="692.8846153846155" y="0" dx="0em" dy="0.95em" style="text-anchor: middle; visibility: inherit; font-family: Roboto, sans-serif; font-size: 12px; font-weight: 200;" fill="rgb(33, 33, 33)" stroke="none" stroke-width="1px">45k</text><text x="762.1730769230769" y="0" dx="0em" dy="0.95em" style="text-anchor: middle; visibility: inherit; font-family: Roboto, sans-serif; font-size: 12px; font-weight: 200;" fill="rgb(33, 33, 33)" stroke="none" stroke-width="1px">50k</text><text x="831.4615384615385" y="0" dx="0em" dy="0.95em" style="text-anchor: middle; visibility: inherit; font-family: Roboto, sans-serif; font-size: 12px; font-weight: 200;" fill="rgb(33, 33, 33)" stroke="none" stroke-width="1px">55k</text><text x="900.75" y="0" dx="0em" dy="0.95em" style="text-anchor: middle; visibility: hidden; font-family: Roboto, sans-serif; font-size: 12px; font-weight: 200;" fill="rgb(33, 33, 33)" stroke="none" stroke-width="1px">60k</text></g><line x1="0" y1="0" x2="900.75" y2="0" fill="rgb(0, 0, 0)" stroke="rgb(204, 204, 204)" stroke-width="1px"></line></g></g></g></g></svg>