<svg viewBox="0 0 930.75 400" xmlns="http://www.w3.org/2000/svg"><g><g><g><g><g><line x1="41.171875" y1="360.83041221822697" x2="36.171875" y2="360.83041221822697" style="visibility: inherit;" fill="rgb(0, 0, 0)" stroke="rgb(204, 204, 204)" stroke-width="1px"></line><line x1="41.171875" y1="332.2077487396959" x2="36.171875" y2="332.2077487396959" style="visibility: inherit;" fill="rgb(0, 0, 0)" stroke="rgb(204, 204, 204)" stroke-width="1px"></line><line x1="41.171875" y1="311.8996458131251" x2="36.171875" y2="311.8996458131251" style="visibility: inherit;" fill="rgb(0, 0, 0)" stroke="rgb(204, 204, 204)" stroke-width="1px"></line><line x1="41.171875" y1="296.1474574029521" x2="36.171875" y2="296.1474574029521" style="visibility: inherit;" fill="rgb(0, 0, 0)" stroke="rgb(204, 204, 204)" stroke-width="1px"></line><line x1="41.171875" y1="283.276982334594" x2="36.171875" y2="283.276982334594" style="visibility: inherit;" fill="rgb(0, 0, 0)" stroke="rgb(204, 204, 204)" stroke-width="1px"></line><line x1="41.171875" y1="272.3951507159153" x2="36.171875" y2="272.3951507159153" style="visibility: inherit;" fill="rgb(0, 0, 0)" stroke="rgb(204, 204, 204)" stroke-width="1px"></line><line x1="41.171875" y1="262.96887940802327" x2="36.171875" y2="262.96887940802327" style="visibility: inherit;" fill="rgb(0, 0, 0)" stroke="rgb(204, 204, 204)" stroke-width="1px"></line><line x1="41.171875" y1="254.65431885606287" x2="36.171875" y2="254.65431885606287" style="visibility: inherit;" fill="rgb(0, 0, 0)" stroke="rgb(204, 204, 204)" stroke-width="1px"></line><line x1="41.171875" y1="247.2166909978503" x2="36.171875" y2="247.2166909978503" style="visibility: inherit;" fill="rgb(0, 0, 0)" stroke="rgb(204, 204, 204)" stroke-width="1px"></line><line x1="41.171875" y1="198.28592459274844" x2="36.171875" y2="198.28592459274844" style="visibility: inherit;" fill="rgb(0, 0, 0)" stroke="rgb(204, 204, 204)" stroke-width="1px"></line><line x1="41.171875" y1="169.66326111421728" x2="36.171875" y2="169.66326111421728" style="visibility: inherit;" fill="rgb(0, 0, 0)" stroke="rgb(204, 204, 204)" stroke-width="1px"></line><line x1="41.171875" y1="149.3551581876466" x2="36.171875" y2="149.3551581876466" style="visibility: inherit;" fill="rgb(0, 0, 0)" stroke="rgb(204, 204, 204)" stroke-width="1px"></line><line x1="41.171875" y1="133.60296977747362" x2="36.171875" y2="133.60296977747362" style="visibility: inherit;" fill="rgb(0, 0, 0)" stroke="rgb(204, 204, 204)" stroke-width="1px"></line><line x1="41.171875" y1="120.73249470911553" x2="36.171875" y2="120.73249470911553" style="visibility: inherit;" fill="rgb(0, 0, 0)" stroke="rgb(204, 204, 204)" stroke-width="1px"></line><line x1="41.171875" y1="109.85066309043675" x2="36.171875" y2="109.85066309043675" style="visibility: inherit;" fill="rgb(0, 0, 0)" stroke="rgb(204, 204, 204)" stroke-width="1px"></line><line x1="41.171875" y1="100.4243917825448" x2="36.171875" y2="100.4243917825448" style="visibility: inherit;" fill="rgb(0, 0, 0)" stroke="rgb(204, 204, 204)" stroke-width="1px"></line><line x1="41.171875" y1="92.10983123058438" x2="36.171875" y2="92.10983123058438" style="visibility: inherit;" fill="rgb(0, 0, 0)" stroke="rgb(204, 204, 204)" stroke-width="1px"></line><line x1="41.171875" y1="84.67220337237173" x2="36.171875" y2="84.67220337237173" style="visibility: inherit;" fill="rgb(0, 0, 0)" stroke="rgb(204, 204, 204)" stroke-width="1px"></line><line x1="41.171875" y1="35.74143696726997" x2="36.171875" y2="35.74143696726997" style="visibility: inherit;" fill="rgb(0, 0, 0)" stroke="rgb(204, 204, 204)" stroke-width="1px"></line><line x1="41.171875" y1="7.118773488738811" x2="36.171875" y2="7.118773488738811" style="visibility: inherit;" fill="rgb(0, 0, 0)" stroke="rgb(204, 204, 204)" stroke-width="1px"></line></g><g transform="translate(31.171875, 0)"><text x="0" y="360.83041221822697" dx="0em" dy="0.3em" style="text-anchor: end; visibility: inherit; font-family: Roboto, sans-serif; font-size: 12px; font-weight: 200;" fill="rgb(33, 33, 33)" stroke="none" stroke-width="1px">2</text><text x="0" y="332.2077487396959" dx="0em" dy="0.3em" style="text-anchor: end; visibility: hidden; font-family: Roboto, sans-serif; font-size: 12px; font-weight: 200;" fill="rgb(33, 33, 33)" stroke="none" stroke-width="1px">3</text><text x="0" y="311.8996458131251" dx="0em" dy="0.3em" style="text-anchor: end; visibility: hidden; font-family: Roboto, sans-serif; font-size: 12px; font-weight: 200;" fill="rgb(33, 33, 33)" stroke="none" stroke-width="1px">4</text><text x="0" y="296.1474574029521" dx="0em" dy="0.3em" style="text-anchor: end; visibility: inherit; font-family: Roboto, sans-serif; font-size: 12px; font-weight: 200;" fill="rgb(33, 33, 33)" stroke="none" stroke-width="1px">5</text><text x="0" y="283.276982334594" dx="0em" dy="0.3em" style="text-anchor: end; visibility: hidden; font-family: Roboto, sans-serif; font-size: 12px; font-weight: 200;" fill="rgb(33, 33, 33)" stroke="none" stroke-width="1px">6</text><text x="0" y="272.3951507159153" dx="0em" dy="0.3em" style="text-anchor: end; visibility: hidden; font-family: Roboto, sans-serif; font-size: 12px; font-weight: 200;" fill="rgb(33, 33, 33)" stroke="none" stroke-width="1px">7</text><text x="0" y="262.96887940802327" dx="0em" dy="0.3em" style="text-anchor: end; visibility: inherit; font-family: Roboto, sans-serif; font-size: 12px; font-weight: 200;" fill="rgb(33, 33, 33)" stroke="none" stroke-width="1px">8</text><text x="0" y="254.65431885606287" dx="0em" dy="0.3em" style="text-anchor: end; visibility: hidden; font-family: Roboto, sans-serif; font-size: 12px; font-weight: 200;" fill="rgb(33, 33, 33)" stroke="none" stroke-width="1px">9</text><text x="0" y="247.2166909978503" dx="0em" dy="0.3em" style="text-anchor: end; visibility: hidden; font-family: Roboto, sans-serif; font-size: 12px; font-weight: 200;" fill="rgb(33, 33, 33)" stroke="none" stroke-width="1px">10</text><text x="0" y="198.28592459274844" dx="0em" dy="0.3em" style="text-anchor: end; visibility: inherit; font-family: Roboto, sans-serif; font-size: 12px; font-weight: 200;" fill="rgb(33, 33, 33)" stroke="none" stroke-width="1px">20</text><text x="0" y="169.66326111421728" dx="0em" dy="0.3em" style="text-anchor: end; visibility: hidden; font-family: Roboto, sans-serif; font-size: 12px; font-weight: 200;" fill="rgb(33, 33, 33)" stroke="none" stroke-width="1px">30</text><text x="0" y="149.3551581876466" dx="0em" dy="0.3em" style="text-anchor: end; visibility: hidden; font-family: Roboto, sans-serif; font-size: 12px; font-weight: 200;" fill="rgb(33, 33, 33)" stroke="none" stroke-width="1px">40</text><text x="0" y="133.60296977747362" dx="0em" dy="0.3em" style="text-anchor: end; visibility: inherit; font-family: Roboto, sans-serif; font-size: 12px; font-weight: 200;" fill="rgb(33, 33, 33)" stroke="none" stroke-width="1px">50</text><text x="0" y="120.73249470911553" dx="0em" dy="0.3em" style="text-anchor: end; visibility: hidden; font-family: Roboto, sans-serif; font-size: 12px; font-weight: 200;" fill="rgb(33, 33, 33)" stroke="none" stroke-width="1px">60</text><text x="0" y="109.85066309043675" dx="0em" dy="0.3em" style="text-anchor: end; visibility: hidden; font-family: Roboto, sans-serif; font-size: 12px; font-weight: 200;" fill="rgb(33, 33, 33)" stroke="none" stroke-width="1px">70</text><text x="0" y="100.4243917825448" dx="0em" dy="0.3em" style="text-anchor: end; visibility: inherit; font-family: Roboto, sans-serif; font-size: 12px; font-weight: 200;" fill="rgb(33, 33, 33)" stroke="none" stroke-width="1px">80</text><text x="0" y="92.10983123058438" dx="0em" dy="0.3em" style="text-anchor: end; visibility: hidden; font-family: Roboto, sans-serif; font-size: 12px; font-weight: 200;" fill="rgb(33, 33, 33)" stroke="none" stroke-width="1px">90</text><text x="0" y="84.67220337237173" dx="0em" dy="0.3em" style="text-anchor: end; visibility: hidden; font-family: Roboto, sans-serif; font-size: 12px; font-weight: 200;" fill="rgb(33, 33, 33)" stroke="none" stroke-width="1px">100</text><text x="0" y="35.74143696726997" dx="0em" dy="0.3em" style="text-anchor: end; visibility: inherit; font-family: Roboto, sans-serif; font-size: 12px; font-weight: 200;" fill="rgb(33, 33, 33)" stroke="none" stroke-width="1px">200</text><text x="0" y="7.118773488738811" dx="0em" dy="0.3em" style="text-anchor: end; visibility: hidden; font-family: Roboto, sans-serif; font-size: 12px; font-weight: 200;" fill="rgb(33, 33, 33)" stroke="none" stroke-width="1px">300</text></g><line x1="41.171875" y1="0" x2="41.171875" y2="377" fill="rgb(0, 0, 0)" stroke="rgb(204, 204, 204)" stroke-width="1px"></line></g></g><g transform="translate(41, 0)" clip-path="url(#clip_0)"><clipPath id="clip_0"><rect width="889" height="377"></rect></clipPath><g><g><g><line x1="0" y1="0" x2="0" y2="377" fill="rgb(0, 0, 0)" stroke="rgb(66, 66, 66)" stroke-width="1px" opacity="0.25"></line><line x1="68.42908653846155" y1="0" x2="68.42908653846155" y2="377" fill="rgb(0, 0, 0)" stroke="rgb(66, 66, 66)" stroke-width="1px" opacity="0.25"></line><line x1="136.8581730769231" y1="0" x2="136.8581730769231" y2="377" fill="rgb(0, 0, 0)" stroke="rgb(66, 66, 66)" stroke-width="1px" opacity="0.25"></line><line x1="205.2872596153846" y1="0" x2="205.2872596153846" y2="377" fill="rgb(0, 0, 0)" stroke="rgb(66, 66, 66)" stroke-width="1px" opacity="0.25"></line><line x1="273.7163461538462" y1="0" x2="273.7163461538462" y2="377" fill="rgb(0, 0, 0)" stroke="rgb(66, 66, 66)" stroke-width="1px" opacity="0.25"></line><line x1="342.14543269230774" y1="0" x2="342.14543269230774" y2="377" fill="rgb(0, 0, 0)" stroke="rgb(66, 66, 66)" stroke-width="1px" opacity="0.25"></line><line x1="410.5745192307692" y1="0" x2="410.5745192307692" y2="377" fill="rgb(0, 0, 0)" stroke="rgb(66, 66, 66)" stroke-width="1px" opacity="0.25"></line><line x1="479.0036057692308" y1="0" x2="479.0036057692308" y2="377" fill="rgb(0, 0, 0)" stroke="rgb(66, 66, 66)" stroke-width="1px" opacity="0.25"></line><line x1="547.4326923076924" y1="0" x2="547.4326923076924" y2="377" fill="rgb(0, 0, 0)" stroke="rgb(66, 66, 66)" stroke-width="1px" opacity="0.25"></line><line x1="615.8617788461538" y1="0" x2="615.8617788461538" y2="377" fill="rgb(0, 0, 0)" stroke="rgb(66, 66, 66)" stroke-width="1px" opacity="0.25"></line><line x1="684.2908653846155" y1="0" x2="684.2908653846155" y2="377" fill="rgb(0, 0, 0)" stroke="rgb(66, 66, 66)" stroke-width="1px" opacity="0.25"></line><line x1="752.7199519230769" y1="0" x2="752.7199519230769" y2="377" fill="rgb(0, 0, 0)" stroke="rgb(66, 66, 66)" stroke-width="1px" opacity="0.25"></line><line x1="821.1490384615385" y1="0" x2="821.1490384615385" y2="377" fill="rgb(0, 0, 0)" stroke="rgb(66, 66, 66)" stroke-width="1px" opacity="0.25"></line><line x1="889.578125" y1="0" x2="889.578125" y2="377" fill="rgb(0, 0, 0)" stroke="rgb(66, 66, 66)" stroke-width="1px" opacity="0.25"></line></g><g><line x1="0" y1="360.83041221822697" x2="889.578125" y2="360.83041221822697" fill="rgb(0, 0, 0)" stroke="rgb(66, 66, 66)" stroke-width="1px" opacity="0.25"></line><line x1="0" y1="332.2077487396959" x2="889.578125" y2="332.2077487396959" fill="rgb(0, 0, 0)" stroke="rgb(66, 66, 66)" stroke-width="1px" opacity="0.25"></line><line x1="0" y1="311.8996458131251" x2="889.578125" y2="311.8996458131251" fill="rgb(0, 0, 0)" stroke="rgb(66, 66, 66)" stroke-width="1px" opacity="0.25"></line><line x1="0" y1="296.1474574029521" x2="889.578125" y2="296.1474574029521" fill="rgb(0, 0, 0)" stroke="rgb(66, 66, 66)" stroke-width="1px" opacity="0.25"></line><line x1="0" y1="283.276982334594" x2="889.578125" y2="283.276982334594" fill="rgb(0, 0, 0)" stroke="rgb(66, 66, 66)" stroke-width="1px" opacity="0.25"></line><line x1="0" y1="272.3951507159153" x2="889.578125" y2="272.3951507159153" fill="rgb(0, 0, 0)" stroke="rgb(66, 66, 66)" stroke-width="1px" opacity="0.25"></line><line x1="0" y1="262.96887940802327" x2="889.578125" y2="262.96887940802327" fill="rgb(0, 0, 0)" stroke="rgb(66, 66, 66)" stroke-width="1px" opacity="0.25"></line><line x1="0" y1="254.65431885606287" x2="889.578125" y2="254.65431885606287" fill="rgb(0, 0, 0)" stroke="rgb(66, 66, 66)" stroke-width="1px" opacity="0.25"></line><line x1="0" y1="247.2166909978503" x2="889.578125" y2="247.2166909978503" fill="rgb(0, 0, 0)" stroke="rgb(66, 66, 66)" stroke-width="1px" opacity="0.25"></line><line x1="0" y1="198.28592459274844" x2="889.578125" y2="198.28592459274844" fill="rgb(0, 0, 0)" stroke="rgb(66, 66, 66)" stroke-width="1px" opacity="0.25"></line><line x1="0" y1="169.66326111421728" x2="889.578125" y2="169.66326111421728" fill="rgb(0, 0, 0)" stroke="rgb(66, 66, 66)" stroke-width="1px" opacity="0.25"></line><line x1="0" y1="149.3551581876466" x2="889.578125" y2="149.3551581876466" fill="rgb(0, 0, 0)" stroke="rgb(66, 66, 66)" stroke-width="1px" opacity="0.25"></line><line x1="0" y1="133.60296977747362" x2="889.578125" y2="133.60296977747362" fill="rgb(0, 0, 0)" stroke="rgb(66, 66, 66)" stroke-width="1px" opacity="0.25"></line><line x1="0" y1="120.73249470911553" x2="889.578125" y2="120.73249470911553" fill="rgb(0, 0, 0)" stroke="rgb(66, 66, 66)" stroke-width="1px" opacity="0.25"></line><line x1="0" y1="109.85066309043675" x2="889.578125" y2="109.85066309043675" fill="rgb(0, 0, 0)" stroke="rgb(66, 66, 66)" stroke-width="1px" opacity="0.25"></line><line x1="0" y1="100.4243917825448" x2="889.578125" y2="100.4243917825448" fill="rgb(0, 0, 0)" stroke="rgb(66, 66, 66)" stroke-width="1px" opacity="0.25"></line><line x1="0" y1="92.10983123058438" x2="889.578125" y2="92.10983123058438" fill="rgb(0, 0, 0)" stroke="rgb(66, 66, 66)" stroke-width="1px" opacity="0.25"></line><line x1="0" y1="84.67220337237173" x2="889.578125" y2="84.67220337237173" fill="rgb(0, 0, 0)" stroke="rgb(66, 66, 66)" stroke-width="1px" opacity="0.25"></line><line x1="0" y1="35.74143696726997" x2="889.578125" y2="35.74143696726997" fill="rgb(0, 0, 0)" stroke="rgb(66, 66, 66)" stroke-width="1px" opacity="0.25"></line><line x1="0" y1="7.118773488738811" x2="889.578125" y2="7.118773488738811" fill="rgb(0, 0, 0)" stroke="rgb(66, 66, 66)" stroke-width="1px" opacity="0.25"></line></g></g></g><g><g><line x1="68.42908653846155" y1="0" x2="68.42908653846155" y2="377" fill="rgb(0, 0, 0)" stroke="rgb(153, 153, 153)" stroke-width="1.5px"></line></g></g><g><g><g><g><g><path stroke="rgb(187, 187, 187)" stroke-width="2px" d="M71.15256418269232,49.14313167119951L73.88972764423077,52.07327595605209L77.39329687499999,52.90317772067401L71.15256418269232,52.334387925143716L73.88972764423077,53.857142857142875L77.39329687499999,54.611754480808074L80.13046033653846,55.67159874093858L71.15256418269232,54.053809783194126L73.88972764423077,53.15655634222078L71.15256418269232,52.51595218825797L73.88972764423077,51.918557400808346L77.39329687499999,52.159753433720695L80.13046033653846,53.072356054725134L83.63402956730769,53.73067161092448L86.37119302884615,53.91172006581683L89.87476225961538,53.770221698798764L92.61192572115384,52.835890057754625L96.11549495192308,52.42722421543541L98.85265841346154,52.71510087805357L102.35622764423077,52.58250850372153L105.09339110576923,52.39063187636265L108.59696033653847,52.428908720602884L111.33412379807692,51.67055848411331L114.83769302884616,50.92647329146541L117.5748564903846,50.74442178729682L121.07842572115385,50.85351504220083L123.8155891826923,51.18498789467465L127.31915841346155,51.56632480105995L130.056321875,50.985389875407975L133.55989110576922,51.60924040272708L136.2970545673077,51.890059277259L139.8006237980769,52.02057960982299L142.53778725961538,52.01279805334691L146.0413564903846,52.561089061743296L148.77851995192307,52.493661533800854L152.28208918269232,53.22626628105875L155.01925264423076,53.74312891105915L158.522821875,54.50363652437008L161.25998533653848,54.893116162930646L164.7635545673077,55.39177384494672L167.50071802884617,55.84981113698025L171.00428725961538,56.410784643481L173.74145072115385,56.696408752472244L177.24501995192307,57.11469646168732L179.98218341346154,57.47017796904324L183.4857526442308,57.623818030410426L186.22291610576923,57.92041517091633L189.72648533653847,58.212033829731645L192.46364879807692,58.28704764732471L195.96721802884616,58.70972864016885L198.7043814903846,58.88350709342661L202.20795072115382,59.01522303111923L204.9451141826923,59.182089208163895L208.44868341346154,59.309087798128644L211.185846875,59.43923698893366L214.68941610576923,59.543969581714755L217.4265795673077,59.683637253500095L220.9301487980769,59.63700495556854L223.6673122596154,59.64668844790818L227.17088149038463,59.45527338684395L229.90804495192305,59.526232041235936L233.41161418269232,59.55753537286914L236.1487776442308,59.61480061095934L239.65234687499998,59.48293759240288L242.38951033653845,59.6336018461053L245.8930795673077,59.50561935652293L248.63024302884617,59.74672210049898L252.13381225961535,59.75888351886993L254.87097572115383,59.759366384942034L258.3745449519231,59.98379738569872L261.11170841346154,59.869483188824276L264.61527764423073,59.91884712873334L267.35244110576923,59.87380543430829L270.8560103365385,59.938822130364734L273.5931737980769,59.9301176536781L277.09674302884616,59.99918574609522L279.8339064903846,59.961670696332824L283.33747572115385,59.94605520646583L286.0746391826923,60.18492274470696L289.57820841346154,60.123747185206774L292.315371875,60.17079105008147L295.8189411057692,60.12529243622639L298.55610456730767,60.141937647379066L302.0596737980769,60.223960506205586L304.7968372596154,60.20045046515475L308.30040649038466,60.27216894451652L311.03756995192305,60.34352954512754L314.5411391826923,60.210991839053065L317.2783026442308,60.19818815088813L320.781871875,60.195478200670294L323.5190353365384,60.28199088450405L327.0226045673077,60.25715981820923L329.75976802884617,60.25391645047067L333.26333725961535,60.36806180727784L336.00050072115386,60.47999330825472L339.5040699519231,60.50760693526754L342.24123341346154,60.53923892886318L345.74480264423073,60.55242296876433L348.48196610576923,60.61251704534329L351.9855353365385,60.64223687684751L354.7226987980769,60.94058778923663L358.22626802884616,60.82357685480679L360.9634314903846,60.720962137400754L364.46700072115385,60.458898936366346L367.2041641826923,60.45948014668128L370.70773341346154,60.642336257072294L373.444896875,60.79499509625425L376.9484661057692,60.83313100782213L379.68562956730767,60.838824161364045L383.1891987980769,60.951159838028225L385.9263622596154,60.91921246635744L389.4299314903846,60.905893894064846L392.16709495192305,61.09284574773127L395.6706641826923,61.1379828710267L398.4078276442308,61.204045349499225L401.911396875,61.32169177042835L404.6485603365385,61.31847299979699L408.1521295673077,61.27481611042548L410.88929302884617,61.14315803642401L414.39286225961536,61.30650886388832L417.13002572115386,61.38293241321604L420.6335949519231,61.58879808097736L423.37075841346154,61.61971771509501L426.87432764423073,61.46918450442849L429.61149110576923,61.63195786762771L433.1150603365385,61.65139922469138L435.8522237980769,61.695628009195715L439.35579302884616,61.69520864172066L442.0929564903846,61.863873458012286L445.5965257211538,61.62353540912471L448.3336891826923,61.77987963729386L451.83725841346154,61.83091406073161L454.574421875,61.87231346772734L458.07799110576923,61.94415293604788L460.81515456730773,62.039158121793015L464.31872379807686,61.881127386428304L467.05588725961536,61.833075000697725L470.5594564903846,61.839458111053105L473.29661995192305,61.77476706910231L476.8001891826923,61.653242046427366L479.5373526442308,61.73699167598987L483.04092187500004,61.78971629995377L485.7780853365385,61.7549254020874L489.28165456730767,61.836949934650534L492.0188180288461,61.79016133595289L495.52238725961536,61.953318741673925L498.25955072115386,61.99535361879997L501.7631199519231,61.98070462633266L504.50028341346155,62.085444966114736L508.0038526442308,62.11728955520958L510.7410161057692,62.11334351407855L514.2445853365384,62.03825483274116L516.9817487980769,61.98974032587323L520.4853180288461,62.02070579664316L523.2224814903847,62.10598573261481L526.7260507211539,62.09884384991115L529.4632141826924,62.14556803758746L532.9667834134615,62.10670914466641L535.7039468749999,62.24978507262736L539.2075161057692,62.211096431870544L541.9446795673077,62.31758294526557L545.448248798077,62.35366949507211L548.1854122596154,62.3119971976684L551.6889814903847,62.312664583230536L554.4261449519231,62.281864818871234L557.9297141826922,62.269997622928955L560.6668776442308,62.260030210868116L564.170446875,62.287290415479L566.9076103365385,62.35095202613566L570.4111795673077,62.32115339033794L573.1483430288462,62.328204176329464L576.6519122596154,62.21508922910961L579.3890757211537,62.254299429848466L582.8926449519231,62.36268010862917L585.6298084134615,62.39999451937812L589.1333776442308,62.60030309833363L591.8705411057692,62.669124124630855L595.3741103365385,62.52517687740225L598.1112737980769,62.66643758990509L601.614843028846,62.525271472909246L604.3520064903846,62.44677329254736L607.8555757211539,62.520523949846144L610.5927391826923,62.62579584117077L614.0963084134615,62.681432795393974L616.833471875,62.74271003507307L620.3370411057692,62.79117491324574L623.0742045673078,62.87732406087367L626.5777737980769,62.95618653888212L629.3149372596154,62.973300559973616L632.8185064903846,62.99901456495223L635.555669951923,62.98372484140846L639.0592391826923,63.110239430689724L641.7964026442307,63.09681231076561L645.2999718750001,63.07656535811578L648.0371353365384,63.20942846552159L651.5407045673077,63.20969169022031L654.2778680288461,63.234237116561395L657.7814372596154,63.27930398818181L660.5186007211538,63.26965974508572L664.022169951923,63.32112549203835L666.7593334134616,63.395081137007814L670.2629026442308,63.495743341937356L673.0000661057692,63.41631585649012L676.5036353365384,63.516077853369715L679.2407987980769,63.55738781373986L682.7443680288461,63.51294915044617L685.4815314903847,63.563959831780835L688.9851007211539,63.56912266599219L691.7222641826924,63.600070812672875L695.2258334134615,63.67336079920448L697.9629968749999,63.61393343795957L701.4665661057692,63.73315451906103L704.2037295673077,63.67041904218409L707.707298798077,63.68299811615111L710.4444622596154,63.62273575797138L713.9480314903847,63.64080339050426L716.6851949519231,63.95255469875026L720.1887641826922,63.80161989658278L722.9259276442308,63.718270586037185L726.429496875,63.59392420796883L729.1666603365385,63.56956956207737L732.6702295673077,63.58028914459113L735.4073930288462,63.595175768172304L738.9109622596154,63.662552676850495L741.6481257211539,63.699910890000254L745.1516949519231,63.712437978018976L747.8888584134615,63.66605890503724L751.3924276442308,63.73432409905698L754.1295911057692,63.77355241002306L757.6331603365385,63.76503189568811L760.3703237980769,63.79432568567044L763.873893028846,63.82099175650828L766.6110564903846,63.766791992132376L770.1146257211539,63.787968188901935L772.8517891826923,63.80760174764762L776.3553584134615,63.773435855029454L779.092521875,63.8676781797233L782.5960911057692,63.86239249563922L785.3332545673078,63.85325385837581L788.8368237980769,63.763194219255894L791.5739872596154,63.798024507813984L795.0775564903846,63.78778574849291L797.814719951923,63.947646955665334L801.3182891826923,63.93938401452587L804.0554526442309,63.99323758798193L807.5590218750001,64.07334313115604L810.2961853365384,63.839998171347354L813.7997545673077,63.85060273204332L816.5369180288461,63.84997885435834" style="fill: none;" fill="none"></path></g><g><path stroke="rgb(0, 153, 136)" stroke-width="2px" d="M71.15256418269232,42.05660862221872L73.88972764423077,94.16403340733491L77.39329687499999,129.94269225805093L71.15256418269232,77.33618965708308L73.88972764423077,103.87000932527755L77.39329687499999,130.0786681166279L80.13046033653846,153.31269899239615L71.15256418269232,82.99667865184405L73.88972764423077,73.8289440882758L71.15256418269232,56.48669636917256L73.88972764423077,58.714204401514976L77.39329687499999,74.88904436568883L80.13046033653846,97.87580022947887L83.63402956730769,119.83493450025901L86.37119302884615,139.50053288645015L89.87476225961538,157.6115095536759L92.61192572115384,172.84391583671731L96.11549495192308,185.63871797101027L98.85265841346154,195.92622272841393L102.35622764423077,204.99368853629426L105.09339110576923,212.97095162118376L108.59696033653847,221.49010034178596L111.33412379807692,228.86157075973694L114.83769302884616,236.45469075656987L117.5748564903846,243.1218741494603L121.07842572115385,248.6878507825217L123.8155891826923,252.99274943867394L127.31915841346155,257.03271329898257L130.056321875,260.30444920321L133.55989110576922,263.29052708652085L136.2970545673077,266.3396797789921L139.8006237980769,269.58964878438906L142.53778725961538,272.74591437324824L146.0413564903846,275.7639445490412L148.77851995192307,278.9680434140554L152.28208918269232,282.6761965309308L155.01925264423076,285.88967347849473L158.522821875,288.34040608857026L161.25998533653848,291.058255320563L164.7635545673077,292.87199035127367L167.50071802884617,294.49933117636436L171.00428725961538,295.9669095025114L173.74145072115385,295.90505630780007L177.24501995192307,297.1714879164562L179.98218341346154,297.6187038008116L183.4857526442308,297.5974243321796L186.22291610576923,298.59344673909777L189.72648533653847,298.4684882308155L192.46364879807692,298.9948994045498L195.96721802884616,298.60273214718126L198.7043814903846,299.40283359767386L202.20795072115382,300.17212583859396L204.9451141826923,300.3391514724687L208.44868341346154,300.5190105606738L211.185846875,300.8656522159372L214.68941610576923,299.8503214591924L217.4265795673077,301.3661934749942L220.9301487980769,301.8686309341954L223.6673122596154,301.67937301178006L227.17088149038463,302.0889608902904L229.90804495192305,302.37593737636877L233.41161418269232,302.54174160254087L236.1487776442308,303.366539615204L239.65234687499998,302.797396351375L242.38951033653845,303.473437169923L245.8930795673077,303.79498250799446L248.63024302884617,303.68156206092516L252.13381225961535,304.4680955747027L254.87097572115383,305.20185655912576L258.3745449519231,304.9054276477541L261.11170841346154,305.122876357292L264.61527764423073,305.4248300397091L267.35244110576923,305.91162676224394L270.8560103365385,305.88628491501987L273.5931737980769,305.7650369361889L277.09674302884616,306.250190401481L279.8339064903846,306.5362049464235L283.33747572115385,306.6859795182653L286.0746391826923,306.6180804058578L289.57820841346154,307.2641515154523L292.315371875,307.1291264431914L295.8189411057692,307.32425808986164L298.55610456730767,306.9152747495777L302.0596737980769,307.35654109622146L304.7968372596154,308.12589421804444L308.30040649038466,307.4738642936073L311.03756995192305,307.95066548101033L314.5411391826923,308.4975361001067L317.2783026442308,308.63583352241164L320.781871875,308.75554125258014L323.5190353365384,308.99049692719694L327.0226045673077,308.8298194972015L329.75976802884617,309.3791780281337L333.26333725961535,308.24288696316324L336.00050072115386,309.2789402775663L339.5040699519231,309.65375947320143L342.24123341346154,309.63958649830465L345.74480264423073,309.7330476146459L348.48196610576923,309.93870702182716L351.9855353365385,310.2860772018269L354.7226987980769,309.81806840983523L358.22626802884616,309.8530969784372L360.9634314903846,310.6214878930393L364.46700072115385,310.9637832262463L367.2041641826923,310.3023156856549L370.70773341346154,310.0634364569589L373.444896875,310.9399057171057L376.9484661057692,311.1897462433006L379.68562956730767,310.96216744710756L383.1891987980769,311.2303093712699L385.9263622596154,311.13915378709333L389.4299314903846,310.65830504516146L392.16709495192305,310.84235673655996L395.6706641826923,310.8339323055819L398.4078276442308,311.27051356884147L401.911396875,310.8599460703989L404.6485603365385,311.5313428621879L408.1521295673077,311.65803800009655L410.88929302884617,311.6940383849387L414.39286225961536,311.09370935637077L417.13002572115386,311.8049042370601L420.6335949519231,311.88389648599957L423.37075841346154,312.08225155179275L426.87432764423073,311.6968373548605L429.61149110576923,311.6428219660861L433.1150603365385,311.88020353923616L435.8522237980769,311.8670526094329L439.35579302884616,312.07103990336105L442.0929564903846,311.9735015710544L445.5965257211538,312.0002383853242L448.3336891826923,311.5770524025022L451.83725841346154,312.0516111314569L454.574421875,312.5015156118637L458.07799110576923,312.1715976751048L460.81515456730773,311.9846121636885L464.31872379807686,311.51627357701267L467.05588725961536,312.12341733895926L470.5594564903846,312.73268130194134L473.29661995192305,312.93424971941704L476.8001891826923,312.73581682182646L479.5373526442308,312.59415125641505L483.04092187500004,312.8974012729451L485.7780853365385,312.8445148742957L489.28165456730767,313.1941679951842L492.0188180288461,313.3163390805043L495.52238725961536,312.89046929110106L498.25955072115386,313.5122318943227L501.7631199519231,313.53958108476183L504.50028341346155,313.582938302834L508.0038526442308,313.39289170569026L510.7410161057692,313.6447907243725L514.2445853365384,314.1010172917942L516.9817487980769,313.99808766511984L520.4853180288461,314.12207291209927L523.2224814903847,313.73334628043335L526.7260507211539,314.3728192723125L529.4632141826924,314.63353006506026L532.9667834134615,314.71180094920555L535.7039468749999,314.9183049910928L539.2075161057692,314.70785301701505L541.9446795673077,314.9128729856515L545.448248798077,315.356914326342L548.1854122596154,315.53129302011325L551.6889814903847,315.0089623846965L554.4261449519231,315.86292994648545L557.9297141826922,316.31327812075006L560.6668776442308,316.43901759293124L564.170446875,316.9597045635367L566.9076103365385,316.9841957862495L570.4111795673077,316.6649329556811L573.1483430288462,317.3261167387308L576.6519122596154,317.352013056283L579.3890757211537,317.71382184632967L582.8926449519231,318.52204802589137L585.6298084134615,318.990061584267L589.1333776442308,319.4103693689171L591.8705411057692,319.7335783205547L595.3741103365385,320.05122508139584L598.1112737980769,320.59612344314826L601.614843028846,320.6649513191837L604.3520064903846,320.9442831586201L607.8555757211539,321.0137345824771L610.5927391826923,321.6389493882577L614.0963084134615,321.7109159969938L616.833471875,321.24866675202026L620.3370411057692,321.5966771462903L623.0742045673078,322.2829348781862L626.5777737980769,321.738702786892L629.3149372596154,322.1294034109549L632.8185064903846,322.5681549425745L635.555669951923,322.17512288094383L639.0592391826923,322.6286726532957L641.7964026442307,322.8243235390378L645.2999718750001,322.821911341227L648.0371353365384,322.76129814713386L651.5407045673077,323.1906010558216L654.2778680288461,323.0190909437349L657.7814372596154,323.1510279080112L660.5186007211538,322.8202164264115L664.022169951923,323.0457320721745L666.7593334134616,323.11047231366837L670.2629026442308,323.1185818664028L673.0000661057692,323.07388756804016L676.5036353365384,322.8697438490973L679.2407987980769,323.08148650550805L682.7443680288461,323.0539857589759L685.4815314903847,323.14285714285717L688.9851007211539,322.98649478009037L691.7222641826924,323.3028742442447L695.2258334134615,323.37489327460236L697.9629968749999,323.35246911395393L701.4665661057692,323.1418520341612L704.2037295673077,323.0781477203033L707.707298798077,323.4458820264403L710.4444622596154,323.1508824875507L713.9480314903847,323.0459121573377L716.6851949519231,323.1816839392091L720.1887641826922,323.41781393986315L722.9259276442308,323.7159562037718L726.429496875,322.5194739181633L729.1666603365385,323.37146999155254L732.6702295673077,323.7825642222136L735.4073930288462,323.8828561707663L738.9109622596154,323.5243395398987L741.6481257211539,322.95552258567085L745.1516949519231,323.4275604613503L747.8888584134615,323.51815530845676L751.3924276442308,323.54164582037623L754.1295911057692,323.5467435038522L757.6331603365385,323.4713730859959L760.3703237980769,323.4299010132343L763.873893028846,323.85539422783614L766.6110564903846,323.29498046503016L770.1146257211539,323.37353794695184L772.8517891826923,323.73561317744776L776.3553584134615,323.82481927677156L779.092521875,323.0603583222673L782.5960911057692,323.59116307393305L785.3332545673078,323.78904111281946L788.8368237980769,323.46952618354L791.5739872596154,323.720759697363L795.0775564903846,323.81121920502187L797.814719951923,323.3535308947723L801.3182891826923,323.50941023110636L804.0554526442309,323.81147721645897L807.5590218750001,323.7061329150925L810.2961853365384,323.4410853705312L813.7997545673077,323.7144162342743L816.5369180288461,323.7521235334758" style="fill: none;" fill="none"></path></g></g></g></g><g opacity="0.2"><g><g><g><path stroke="rgb(187, 187, 187)" stroke-width="2px" d="M71.15256418269232,49.14313167119951L73.88972764423077,53.89157802533362L77.39329687499999,53.709168738074354L71.15256418269232,51.671302703278045L73.88972764423077,55.8960118668703L77.39329687499999,55.6691331403461L80.13046033653846,57.215385648883576L71.15256418269232,51.75956938869276L73.88972764423077,51.85375210550581L71.15256418269232,51.575327424463524L73.88972764423077,51.037167000810975L77.39329687499999,52.5217781635102L80.13046033653846,54.46071106738307L83.63402956730769,54.728486862924406L86.37119302884615,54.18395245563763L89.87476225961538,53.55860392739958L92.61192572115384,51.45756349285462L96.11549495192308,51.81872996940737L98.85265841346154,53.14908488766562L102.35622764423077,52.384097812386194L105.09339110576923,52.10380175892482L108.59696033653847,52.486361669230476L111.33412379807692,50.54810749803558L114.83769302884616,49.824856451169076L117.5748564903846,50.47222310796747L121.07842572115385,51.01747122238183L123.8155891826923,51.68513308747481L127.31915841346155,52.142220056928245L130.056321875,50.122854784631826L133.55989110576922,52.555476520667305L136.2970545673077,52.31339325198941L139.8006237980769,52.21681368286104L142.53778725961538,52.001127327664356L146.0413564903846,53.39159403446467L148.77851995192307,52.392640850112734L152.28208918269232,54.33962925414892L155.01925264423076,54.52558856833671L158.522821875,55.659984300389716L161.25998533653848,55.48139465844726L164.7635545673077,56.146427874218624L167.50071802884617,56.54248820010535L171.00428725961538,57.26069303319014L173.74145072115385,57.12702355348258L177.24501995192307,57.74681230166967L179.98218341346154,58.00677937291039L183.4857526442308,57.85490692768262L186.22291610576923,58.36766062172913L189.72648533653847,58.651733122690004L192.46364879807692,58.39971804658858L195.96721802884616,59.34853372134844L198.7043814903846,59.1449795305217L202.20795072115382,59.21325889666712L204.9451141826923,59.43313038630718L208.44868341346154,59.50001510654257L211.185846875,59.63491179622035L214.68941610576923,59.70136039405099L217.4265795673077,59.893658259324255L220.9301487980769,59.567114216672415L223.6673122596154,59.66121617750057L227.17088149038463,59.16912047912849L229.90804495192305,59.63280394052728L233.41161418269232,59.60451641282113L236.1487776442308,59.7007856641628L239.65234687499998,59.28560375660093L242.38951033653845,59.86020287541884L245.8930795673077,59.31407962993575L248.63024302884617,60.10992728932073L252.13381225961535,59.777129575706006L254.87097572115383,59.760090690243246L258.3745449519231,60.32178744384652L261.11170841346154,59.69835823822661L264.61527764423073,59.99295782285642L267.35244110576923,59.80629673264854L270.8560103365385,60.03645959047476L273.5931737980769,59.91706295079032L277.09674302884616,60.10291475697046L279.8339064903846,59.90543547663992L283.33747572115385,59.92263844648788L286.0746391826923,60.544746434361116L289.57820841346154,60.03208313450168L292.315371875,60.24141568253527L295.8189411057692,60.05709945283331L298.55610456730767,60.16691282549938L302.0596737980769,60.34717376763203L304.7968372596154,60.16520007792237L308.30040649038466,60.37988346656454L311.03756995192305,60.45070588623156L314.5411391826923,60.01265069245563L317.2783026442308,60.17898697185335L320.781871875,60.1914134703931L323.5190353365384,60.411959030141695L327.0226045673077,60.219929588131755L329.75976802884617,60.24905167825257L333.26333725961535,60.539626658191075L336.00050072115386,60.64822403888163L339.5040699519231,60.54904763946155L342.24123341346154,60.58671351164899L345.74480264423073,60.572203646573165L348.48196610576923,60.702754188973366L351.9855353365385,60.686840097788895L354.7226987980769,61.390491847267924L358.22626802884616,60.64842331312906L360.9634314903846,60.56731920205722L364.46700072115385,60.06761928890099L367.2041641826923,60.46035197112621L370.70773341346154,60.91751160534979L373.444896875,61.02460414264567L376.9484661057692,60.89037353197738L379.68562956730767,60.84736475266509L383.1891987980769,61.119999247438116L385.9263622596154,60.87131850159686L389.4299314903846,60.885920745950514L392.16709495192305,61.374205153109955L395.6706641826923,61.205742716500836L398.4078276442308,61.30325513099887L401.911396875,61.49852984327477L404.6485603365385,61.31364511901832L408.1521295673077,61.20938135794424L410.88929302884617,60.94613018830341L414.39286225961536,61.55224603998386L417.13002572115386,61.497723092681674L420.6335949519231,61.89872665229434L423.37075841346154,61.666122574075125L426.87432764423073,61.24398486172007L429.61149110576923,61.87682382200625L433.1150603365385,61.680571303146195L435.8522237980769,61.7620231876723L439.35579302884616,61.694579595179206L442.0929564903846,62.11762870112722L445.5965257211538,61.264555633412755L448.3336891826923,62.01504714773926L451.83725841346154,61.90753494114224L454.574421875,61.93445813706645L458.07799110576923,62.052049403810585L460.81515456730773,62.1819060708191L464.31872379807686,61.64474263717773L467.05588725961536,61.761057696728166L470.5594564903846,61.84903385892142L473.29661995192305,61.67784152656481L476.8001891826923,61.4713458762171L479.5373526442308,61.86280271453687L483.04092187500004,61.868877146111885L485.7780853365385,61.702771183807606L489.28165456730767,61.960165713991756L492.0188180288461,61.720036533232594L495.52238725961536,62.19876409993172L498.25955072115386,62.058452903266044L501.7631199519231,61.95873683586312L504.50028341346155,62.242847442183724L508.0038526442308,62.16508339000318L510.7410161057692,62.107424865939215L514.2445853365384,61.925771357923104L516.9817487980769,61.91703102387981L520.4853180288461,62.06717948601108L523.2224814903847,62.234099117724924L526.7260507211539,62.08813238045735L529.4632141826924,62.2157123570046L532.9667834134615,62.04846088336846L535.7039468749999,62.46494416150321L539.2075161057692,62.153103198528335L541.9446795673077,62.47761450788752L545.448248798077,62.40783393217076L548.1854122596154,62.24953484063124L551.6889814903847,62.31366567340438L554.4261449519231,62.23569035414241L557.9297141826922,62.25220056877443L560.6668776442308,62.24508173109894L564.170446875,62.328200470554435L566.9076103365385,62.446552218240946L570.4111795673077,62.276479008461926L573.1483430288462,62.33878167593595L576.6519122596154,62.04575593189325L579.3890757211537,62.31315559719154L582.8926449519231,62.52556376250749L585.6298084134615,62.456003144225264L589.1333776442308,62.90183573740718L591.8705411057692,62.772481629681835L595.3741103365385,62.30980488046902L598.1112737980769,62.87886009115773L601.614843028846,62.314050194832056L604.3520064903846,62.32918944778077L607.8555757211539,62.631294606960125L610.5927391826923,62.783998618468644L614.0963084134615,62.76497053208158L616.833471875,62.834725744139526L620.3370411057692,62.86393467537071L623.0742045673078,63.00674523091095L626.5777737980769,63.07464569304242L629.3149372596154,62.99897937357547L632.8185064903846,63.03760314336643L635.555669951923,62.96079646361923L639.0592391826923,63.30043746728179L641.7964026442307,63.07667641828613L645.2999718750001,63.04620581337833L648.0371353365384,63.409193177689225L651.5407045673077,63.21008652910865L654.2778680288461,63.27107126592343L657.7814372596154,63.34695828761134L660.5186007211538,63.25519585046978L664.022169951923,63.398394533710956L666.7593334134616,63.50616008152777L670.2629026442308,63.64700630171258L673.0000661057692,63.29734194351856L676.5036353365384,63.66598569519479L679.2407987980769,63.61939811640966L682.7443680288461,63.44634356408007L685.4815314903847,63.640545034592556L688.9851007211539,63.57686762535849L691.7222641826924,63.64651848739247L695.2258334134615,63.78343864724013L697.9629968749999,63.524886094122564L701.4665661057692,63.9123645224012L704.2037295673077,63.57642024042232L707.707298798077,63.70187093093264L710.4444622596154,63.53243856876137L713.9480314903847,63.66791351282493L716.6851949519231,64.42277839622159L720.1887641826922,63.57582106860996L722.9259276442308,63.59343085247898L726.429496875,63.40781436583806L729.1666603365385,63.5330533406319L732.6702295673077,63.59637157109181L735.4073930288462,63.617511591428325L738.9109622596154,63.76373877119809L741.6481257211539,63.75598530541734L745.1516949519231,63.73123277919915L747.8888584134615,63.596547378802654L751.3924276442308,63.83684582788546L754.1295911057692,63.832435780479976L757.6331603365385,63.75225305218309L760.3703237980769,63.83828917596641L763.873893028846,63.86100975927394L766.6110564903846,63.68557029181227L770.1146257211539,63.819744399614315L772.8517891826923,63.83706232821628L776.3553584134615,63.722218001002794L779.092521875,64.00927799226308L782.5960911057692,63.85446471151283L785.3332545673078,63.83954812033311L788.8368237980769,63.62831982428218L791.5739872596154,63.85030218433703L795.0775564903846,63.77243039342275L797.814719951923,64.18811960570132L801.3182891826923,63.92699141601894L804.0554526442309,64.07409505906968L807.5590218750001,64.19367214356996L810.2961853365384,63.491420632253345L813.7997545673077,63.86651256065027L816.5369180288461,63.849043048168845" style="fill: none;" fill="none"></path></g><g><path stroke="rgb(0, 153, 136)" stroke-width="2px" d="M71.15256418269232,42.05660862221872L73.88972764423077,169.33681002487714L77.39329687499999,200.8249929010223L71.15256418269232,43.37513900974709L73.88972764423077,167.798031230633L77.39329687499999,198.7401972463282L80.13046033653846,210.8454870829552L71.15256418269232,36.96470694528477L73.88972764423077,62.16790255408629L71.15256418269232,36.70462303337887L73.88972764423077,62.17151281471935L77.39329687499999,109.18997782922705L80.13046033653846,158.460813739062L83.63402956730769,175.67400477901577L86.37119302884615,185.86677934568908L89.87476225961538,198.35383122716436L92.61192572115384,204.4744619749319L96.11549495192308,210.61788794086695L98.85265841346154,214.86451153107785L102.35622764423077,221.2401541677688L105.09339110576923,226.93266818784866L108.59696033653847,236.57426354391112L111.33412379807692,241.5997329174285L114.83769302884616,249.63706692818903L117.5748564903846,254.47617806748676L121.07842572115385,257.95759585775704L123.8155891826923,259.9863064026361L127.31915841346155,263.56229763661315L130.056321875,265.5152251789859L133.55989110576922,268.0207243125866L136.2970545673077,271.17554437208054L139.8006237980769,274.7636235020434L142.53778725961538,277.76180187643723L146.0413564903846,280.54764015410933L148.77851995192307,284.064560489594L152.28208918269232,288.63138182267386L155.01925264423076,291.0020158640169L158.522821875,292.18381547636386L161.25998533653848,295.3419054232926L164.7635545673077,295.6830799271723L167.50071802884617,297.0129202950907L171.00428725961538,298.22711952936936L173.74145072115385,295.81237801482547L177.24501995192307,299.1147818137063L179.98218341346154,298.2948851792262L183.4857526442308,297.5655171516513L186.22291610576923,300.1143367124236L189.72648533653847,298.2814642325036L192.46364879807692,299.79195044756614L195.96721802884616,298.01853620379296L198.7043814903846,300.62025044944437L202.20795072115382,301.34201541252537L204.9451141826923,300.5904332567207L208.44868341346154,300.78966135299464L211.185846875,301.38882733052304L214.68941610576923,298.3541927254888L217.4265795673077,303.70283973569843L220.9301487980769,302.62905658098435L223.6673122596154,301.3964341180762L227.17088149038463,302.707833412259L229.90804495192305,302.808601479496L233.41161418269232,302.7911804264843L236.1487776442308,304.6220922910318L239.65234687499998,301.95219380049326L242.38951033653845,304.4997948297946L245.8930795673077,304.2800634867979L248.63024302884617,303.5117723462499L252.13381225961535,305.66457559164553L254.87097572115383,306.31699989544234L258.3745449519231,304.46310521267003L261.11170841346154,305.45031051285156L264.61527764423073,305.88019619048544L267.35244110576923,306.6481745030585L270.8560103365385,305.848289193754L273.5931737980769,305.5835545514065L277.09674302884616,306.98423024204936L279.8339064903846,306.96741137806464L283.33747572115385,306.91123889481884L286.0746391826923,306.51635403440605L289.57820841346154,308.2444820937329L292.315371875,306.9270718576237L295.8189411057692,307.6179706493685L298.55610456730767,306.30620850052765L302.0596737980769,308.02365597588215L304.7968372596154,309.29587765682925L308.30040649038466,306.5069744294159L311.03756995192305,308.67196055245694L314.5411391826923,309.32586856074465L317.2783026442308,308.84378899742444L320.781871875,308.93548432837713L323.5190353365384,309.3444032570804L327.0226045673077,308.5894870101296L329.75976802884617,310.2113159392621L333.26333725961535,306.57202576356565L336.00050072115386,310.862101249208L339.5040699519231,310.21974643419287L342.24123341346154,309.6183323699287L345.74480264423073,309.8734717094854L348.48196610576923,310.2483239345191L351.9855353365385,310.8103586662071L354.7226987980769,309.12182200970807L358.22626802884616,309.9056724433035L360.9634314903846,311.7899878457969L364.46700072115385,311.4803585412843L367.2041641826923,309.32159263824946L370.70773341346154,309.706626468165L373.444896875,312.27535780221575L376.9484661057692,311.5661728436522L379.68562956730767,310.6221690186021L383.1891987980769,311.63444172352223L385.9263622596154,311.0026407360964L389.4299314903846,309.9431180271352L392.16709495192305,311.11933716868657L395.6706641826923,310.821297543878L398.4078276442308,311.9304902083486L401.911396875,310.248537672382L404.6485603365385,312.5505650424613L408.1521295673077,311.84850807828195L410.88929302884617,311.7480734094419L414.39286225961536,310.20268106670056L417.13002572115386,312.885314250161L420.6335949519231,312.002550841877L423.37075841346154,312.3808331180729L426.87432764423073,311.1226330487246L429.61149110576923,311.5618763000278L433.1150603365385,312.23777935664145L435.8522237980769,311.8473308072346L439.35579302884616,312.37813034634024L442.0929564903846,311.82744630225545L445.5965257211538,312.04036260365876L448.3336891826923,310.94699245561577L451.83725841346154,312.7694850764742L454.574421875,313.1817947739278L458.07799110576923,311.6795939337401L460.81515456730773,311.7050592977599L464.31872379807686,310.8195405795658L467.05588725961536,313.04403771603205L470.5594564903846,313.65655168284434L473.29661995192305,313.2376856411047L476.8001891826923,312.4392094281287L479.5373526442308,312.3821845427458L483.04092187500004,313.3547329434013L485.7780853365385,312.76525949259496L489.28165456730767,313.72191655786605L492.0188180288461,313.4999930693819L495.52238725961536,312.2564434394772L498.25955072115386,314.4552661583244L501.7631199519231,313.5806247477518L504.50028341346155,313.6480241015546L508.0038526442308,313.1087777030959L510.7410161057692,314.02433269274337L514.2445853365384,314.7909337208939L516.9817487980769,313.84397408011876L520.4853180288461,314.3084600462532L523.2224814903847,313.1542406933839L526.7260507211539,315.3430232015739L529.4632141826924,315.0264105482378L532.9667834134615,314.8293702379738L535.7039468749999,315.2291981567642L539.2075161057692,314.3933467885266L541.9446795673077,315.22152372468014L545.448248798077,316.0282577786775L548.1854122596154,315.79367139615846L551.6889814903847,314.23264233039396L554.4261449519231,317.16356928015244L557.9297141826922,316.9942335700545L560.6668776442308,316.6280477418687L564.170446875,317.7480077041096L566.9076103365385,317.0209485595217L570.4111795673077,316.1887298232936L573.1483430288462,318.3296509670639L576.6519122596154,317.39087535365877L579.3890757211537,318.26003595869275L582.8926449519231,319.75200713823585L585.6298084134615,319.6979516936468L589.1333776442308,320.04556085810214L591.8705411057692,320.221183472201L595.3741103365385,320.5303914012107L598.1112737980769,321.42143942714137L601.614843028846,320.76831912393413L604.3520064903846,321.3653643732785L607.8555757211539,321.1180400036455L610.5927391826923,322.58727835178496L614.0963084134615,321.81900366200114L616.833471875,320.5609192135618L620.3370411057692,322.1219308744601L623.0742045673078,323.32499486910797L626.5777737980769,320.9301417561415L629.3149372596154,322.7195389713392L632.8185064903846,323.2314380761401L635.555669951923,321.5896475687921L639.0592391826923,323.31450836186184L641.7964026442307,323.11882037663435L645.2999718750001,322.81829319905444L648.0371353365384,322.67047582851427L651.5407045673077,323.8394906920483L654.2778680288461,322.7626045650071L657.7814372596154,323.34939686706224L660.5186007211538,322.326887903739L664.022169951923,323.38536214361L666.7593334134616,323.20769413738606L670.2629026442308,323.1307479425533L673.0000661057692,323.0068991335139L676.5036353365384,322.56463094196374L679.2407987980769,323.4002961358697L682.7443680288461,323.0127547166099L685.4815314903847,323.2763743536525L688.9851007211539,322.7525987196024L691.7222641826924,323.78011808388646L695.2258334134615,323.48305977293336L697.9629968749999,323.3188462233483L701.4665661057692,322.8270999826961L704.2037295673077,322.982698910965L707.707298798077,324.00110043286736L710.4444622596154,322.71068184385183L713.9480314903847,322.8887487527707L716.6851949519231,323.38583249637287L720.1887641826922,323.7734965512764L722.9259276442308,324.1655439552015L726.429496875,320.76193597976817L729.1666603365385,324.6690605491093L732.6702295673077,324.40372949423494L735.4073930288462,324.0335617640739L738.9109622596154,322.9899556449573L741.6481257211539,322.11079979287877L745.1516949519231,324.14158888452124L747.8888584134615,323.6542659504431L751.3924276442308,323.5768962512414L754.1295911057692,323.5543907193571L757.6331603365385,323.35846812992156L760.3703237980769,323.3677385515049L763.873893028846,324.4984817667149L766.6110564903846,322.46261438778583L770.1146257211539,323.49153832887174L772.8517891826923,324.2822321264261L776.3553584134615,323.9588401479115L779.092521875,321.9289685431523L782.5960911057692,324.3949297339651L785.3332545673078,324.08690209000383L788.8368237980769,322.99294914197657L791.5739872596154,324.09929445099635L795.0775564903846,323.94712618531776L797.814719951923,322.672514748362L801.3182891826923,323.7438765313366L804.0554526442309,324.2670151550883L807.5590218750001,323.5484106366562L810.2961853365384,323.04537068064053L813.7997545673077,324.1264072003585L816.5369180288461,323.8087222747248" style="fill: none;" fill="none"></path></g></g></g></g></g></g><g transform="translate(41, 377)" clip-path="url(#clip_1)"><clipPath id="clip_1"><rect width="889" height="23"></rect></clipPath><g><g><line x1="0" y1="0" x2="0" y2="5" style="visibility: inherit;" fill="rgb(0, 0, 0)" stroke="rgb(204, 204, 204)" stroke-width="1px"></line><line x1="68.42908653846155" y1="0" x2="68.42908653846155" y2="5" style="visibility: inherit;" fill="rgb(0, 0, 0)" stroke="rgb(204, 204, 204)" stroke-width="1px"></line><line x1="136.8581730769231" y1="0" x2="136.8581730769231" y2="5" style="visibility: inherit;" fill="rgb(0, 0, 0)" stroke="rgb(204, 204, 204)" stroke-width="1px"></line><line x1="205.2872596153846" y1="0" x2="205.2872596153846" y2="5" style="visibility: inherit;" fill="rgb(0, 0, 0)" stroke="rgb(204, 204, 204)" stroke-width="1px"></line><line x1="273.7163461538462" y1="0" x2="273.7163461538462" y2="5" style="visibility: inherit;" fill="rgb(0, 0, 0)" stroke="rgb(204, 204, 204)" stroke-width="1px"></line><line x1="342.14543269230774" y1="0" x2="342.14543269230774" y2="5" style="visibility: inherit;" fill="rgb(0, 0, 0)" stroke="rgb(204, 204, 204)" stroke-width="1px"></line><line x1="410.5745192307692" y1="0" x2="410.5745192307692" y2="5" style="visibility: inherit;" fill="rgb(0, 0, 0)" stroke="rgb(204, 204, 204)" stroke-width="1px"></line><line x1="479.0036057692308" y1="0" x2="479.0036057692308" y2="5" style="visibility: inherit;" fill="rgb(0, 0, 0)" stroke="rgb(204, 204, 204)" stroke-width="1px"></line><line x1="547.4326923076924" y1="0" x2="547.4326923076924" y2="5" style="visibility: inherit;" fill="rgb(0, 0, 0)" stroke="rgb(204, 204, 204)" stroke-width="1px"></line><line x1="615.8617788461538" y1="0" x2="615.8617788461538" y2="5" style="visibility: inherit;" fill="rgb(0, 0, 0)" stroke="rgb(204, 204, 204)" stroke-width="1px"></line><line x1="684.2908653846155" y1="0" x2="684.2908653846155" y2="5" style="visibility: inherit;" fill="rgb(0, 0, 0)" stroke="rgb(204, 204, 204)" stroke-width="1px"></line><line x1="752.7199519230769" y1="0" x2="752.7199519230769" y2="5" style="visibility: inherit;" fill="rgb(0, 0, 0)" stroke="rgb(204, 204, 204)" stroke-width="1px"></line><line x1="821.1490384615385" y1="0" x2="821.1490384615385" y2="5" style="visibility: inherit;" fill="rgb(0, 0, 0)" stroke="rgb(204, 204, 204)" stroke-width="1px"></line><line x1="889.578125" y1="0" x2="889.578125" y2="5" style="visibility: inherit;" fill="rgb(0, 0, 0)" stroke="rgb(204, 204, 204)" stroke-width="1px"></line></g><g transform="translate(0, 8)"><text x="0" y="0" dx="0em" dy="0.95em" style="text-anchor: middle; visibility: hidden; font-family: Roboto, sans-serif; font-size: 12px; font-weight: 200;" fill="rgb(33, 33, 33)" stroke="none" stroke-width="1px">-5k</text><text x="68.42908653846155" y="0" dx="0em" dy="0.95em" style="text-anchor: middle; visibility: inherit; font-family: Roboto, sans-serif; font-size: 12px; font-weight: 200;" fill="rgb(33, 33, 33)" stroke="none" stroke-width="1px">0</text><text x="136.8581730769231" y="0" dx="0em" dy="0.95em" style="text-anchor: middle; visibility: inherit; font-family: Roboto, sans-serif; font-size: 12px; font-weight: 200;" fill="rgb(33, 33, 33)" stroke="none" stroke-width="1px">5k</text><text x="205.2872596153846" y="0" dx="0em" dy="0.95em" style="text-anchor: middle; visibility: inherit; font-family: Roboto, sans-serif; font-size: 12px; font-weight: 200;" fill="rgb(33, 33, 33)" stroke="none" stroke-width="1px">10k</text><text x="273.7163461538462" y="0" dx="0em" dy="0.95em" style="text-anchor: middle; visibility: inherit; font-family: Roboto, sans-serif; font-size: 12px; font-weight: 200;" fill="rgb(33, 33, 33)" stroke="none" stroke-width="1px">15k</text><text x="342.14543269230774" y="0" dx="0em" dy="0.95em" style="text-anchor: middle; visibility: inherit; font-family: Roboto, sans-serif; font-size: 12px; font-weight: 200;" fill="rgb(33, 33, 33)" stroke="none" stroke-width="1px">20k</text><text x="410.5745192307692" y="0" dx="0em" dy="0.95em" style="text-anchor: middle; visibility: inherit; font-family: Roboto, sans-serif; font-size: 12px; font-weight: 200;" fill="rgb(33, 33, 33)" stroke="none" stroke-width="1px">25k</text><text x="479.0036057692308" y="0" dx="0em" dy="0.95em" style="text-anchor: middle; visibility: inherit; font-family: Roboto, sans-serif; font-size: 12px; font-weight: 200;" fill="rgb(33, 33, 33)" stroke="none" stroke-width="1px">30k</text><text x="547.4326923076924" y="0" dx="0em" dy="0.95em" style="text-anchor: middle; visibility: inherit; font-family: Roboto, sans-serif; font-size: 12px; font-weight: 200;" fill="rgb(33, 33, 33)" stroke="none" stroke-width="1px">35k</text><text x="615.8617788461538" y="0" dx="0em" dy="0.95em" style="text-anchor: middle; visibility: inherit; font-family: Roboto, sans-serif; font-size: 12px; font-weight: 200;" fill="rgb(33, 33, 33)" stroke="none" stroke-width="1px">40k</text><text x="684.2908653846155" y="0" dx="0em" dy="0.95em" style="text-anchor: middle; visibility: inherit; font-family: Roboto, sans-serif; font-size: 12px; font-weight: 200;" fill="rgb(33, 33, 33)" stroke="none" stroke-width="1px">45k</text><text x="752.7199519230769" y="0" dx="0em" dy="0.95em" style="text-anchor: middle; visibility: inherit; font-family: Roboto, sans-serif; font-size: 12px; font-weight: 200;" fill="rgb(33, 33, 33)" stroke="none" stroke-width="1px">50k</text><text x="821.1490384615385" y="0" dx="0em" dy="0.95em" style="text-anchor: middle; visibility: inherit; font-family: Roboto, sans-serif; font-size: 12px; font-weight: 200;" fill="rgb(33, 33, 33)" stroke="none" stroke-width="1px">55k</text><text x="889.578125" y="0" dx="0em" dy="0.95em" style="text-anchor: middle; visibility: hidden; font-family: Roboto, sans-serif; font-size: 12px; font-weight: 200;" fill="rgb(33, 33, 33)" stroke="none" stroke-width="1px">60k</text></g><line x1="0" y1="0" x2="889.578125" y2="0" fill="rgb(0, 0, 0)" stroke="rgb(204, 204, 204)" stroke-width="1px"></line></g></g></g></g></svg>